<svg xmlns="http://www.w3.org/2000/svg" xmlns:xlink="http://www.w3.org/1999/xlink" viewBox="0 0 170.67 227.01"><defs><style>.cls-1,.cls-10,.cls-13,.cls-21{fill:none;}.cls-2{isolation:isolate;}.cls-3{clip-path:url(#clip-path);}.cls-4,.cls-7{fill:#fff;}.cls-5,.cls-6,.cls-8{fill:#d1d3d4;}.cls-10,.cls-11,.cls-17,.cls-21,.cls-5,.cls-6,.cls-9{stroke:#bdb4ab;}.cls-10,.cls-11,.cls-17,.cls-21,.cls-5,.cls-6,.cls-7,.cls-9{stroke-width:0.3px;}.cls-6{stroke-linejoin:round;}.cls-7,.cls-8{stroke:#838785;}.cls-8{stroke-width:0.8px;}.cls-9{fill:#b2aaa2;}.cls-10{stroke-dasharray:0.25 0.25;}.cls-11{fill:#a7a9ac;}.cls-12{opacity:0.4;mix-blend-mode:multiply;}.cls-13,.cls-14{stroke:#a55575;}.cls-13{stroke-linecap:round;stroke-width:2px;}.cls-14{fill:#942c61;stroke-miterlimit:10;}.cls-15{clip-path:url(#clip-path-2);}.cls-16{clip-path:url(#clip-path-3);}.cls-17{fill:#e1cbd1;}.cls-18{clip-path:url(#clip-path-4);}.cls-19{clip-path:url(#clip-path-5);}.cls-20{clip-path:url(#clip-path-6);}</style><clipPath id="clip-path"><rect class="cls-1" x="1.08" y="0.98" width="169.59" height="226.03"/></clipPath><clipPath id="clip-path-2"><rect class="cls-1" x="385.76" y="238.13" width="169.59" height="226.03"/></clipPath><clipPath id="clip-path-3"><rect class="cls-1" x="192.3" y="-2.32" width="169.59" height="226.03"/></clipPath><clipPath id="clip-path-4"><rect class="cls-1" x="385.76" y="-2.02" width="169.59" height="226.03"/></clipPath><clipPath id="clip-path-5"><rect class="cls-1" x="195.38" y="238.13" width="169.59" height="226.03"/></clipPath><clipPath id="clip-path-6"><rect class="cls-1" x="0.16" y="239.65" width="169.59" height="226.03"/></clipPath></defs><title>sRefugee1</title><g class="cls-2"><g id="Picture"><g class="cls-3"><rect id="Fond" class="cls-4" x="-84.24" y="-6.38" width="319.1" height="249.82"/><path class="cls-5" d="M218.81-6.32l2.29,2.27s2.16,4,3.13,4.7,5.21,7.59,5.21,7.59l4.56,4.2,1.63,2.17a7.17,7.17,0,0,1,2.93,0,11.06,11.06,0,0,1,2.81,1.45L246,18.36l0.44,3.11-1.33-1.15h-3.4l-3.49-.49-2.37,2.79a8.59,8.59,0,0,0-1,2.13c0,0.49-.29,6.07-0.29,6.07a17.83,17.83,0,0,0-1.48,3.06c0,0.49,1.18,1.48,1.33,2l0.89,2.79-1.92.82,0.89,3.44L233.5,44.7l-1-.33,0.29-1.31-1.92-1.48-0.89,1,0.29,3.61-1.33,1.64,1.18,2.62,0.59,3.38,0.13,0.49-3.07,2.29-4.55-4-6-5,3.12-3.15-2.55-5.36,1.06-.68L215,32.15l-7.1,4.34-1.14,2.84-2.49.63-1.14,2.21-2.84.32-3.12,4.15L196.92,46l-0.57-5,1.13-.94-2.55-2.2-0.71-1.57,1.56-.79-1.42-2.67-2.55.16-3.25-2.2-2.69-1.1-0.57-1.88L182.06,26l2.84-.95,1.7-.31,0.42-3-6.52-3.93-3.11-4.56,1.13-1.57,1.42-.78-3.68-4.25-1.7.32-2-1.73L173.42,5l-0.28-1.73-2,.47-0.8-1.11L171,2l3-2.51,1.27-.32,5.66,1.88-0.28,2,4.25,1.41,1.41-1.26L188,3.57l1.42,1.57,3.11,0.78,1.13-1.57,0.28-2.2L191.82,0l-3.54-1.41,0.43-1.73-1.27-.16-1.56-1.41,0.57-1.73L187.86-7l0.8-1.6L193-7.47l2.9,3.21,2.89,1.61,2.9,4.82,6.89,2,2.17-1.61L211.8-1l4-2.81,2.39-3.09,0.63,0.62"/><polygon class="cls-5" points="195.59 49.11 193.66 50.08 189.2 48.02 181.84 46.36 178.76 42.28 173.66 36.45 169.57 29.85 168.89 29.4 168.34 28.75 173.67 27.43 177.4 30.95 179.05 31.95 181.27 33.59 183.12 31.95 187.2 31.33 187.77 37.71 192.03 39.57 191.65 42.03 195.59 49.11"/><path class="cls-5" d="M54.95,102.55l2.16-2.32-3.33-5.31,3.41-4.46L59,88.37l-0.17-2.75-3.24-2.28L53.52,85.9l-2.82.38-0.76.85,1.28,0.38-1.11,2-2,.28-5.81-2.65-2.05-.57-2.9-1.23-6.92,6.45-0.68.85-0.43,1.81-0.94,1.7L27.12,95,25,97.66l-1.63-.47L19.43,98l-1.54.1-1.62,1-1.79-.57-2,1.42L9,98.9,5.76,96.62,3.2,93.4,0.55,90.17-3,89.32-8.16,86.1l-4.53-1.33L-14.83,84l-1.71.86-2-.76-0.94,1.42,0.34,4.26-1.19,2.66L-20,93.69l-1.28,2.75-1.62-1.52-3.42.67-1.11,1a10.07,10.07,0,0,1-2,1.14c-0.35,0-5.3-1.42-5.3-1.42L-35.6,95.2l-1.28.19-2-1.8-0.34-2.47L-41,90.27l0.85-1.89-1.54-1.71L-43,88.28l-2.47-1h-1L-47,85.24l-1.36.1-0.86-1.23-0.68,1-1.28.66-3.25,3.42-0.68-1.33,0.6-1.71L-61,88l-0.42-1.43,5-1.6,1.29-.19,1.11-.95,1.71-2.28-7,.19-5.47.57-1-2.27,1.19-.95,2.56,0.38-1.54-4.93-3.41.85-0.86-5.22-1.62-.95,2.22-1.33,0.43-4.17-3.68-1.23-2.56-.66-1.11-2.66L-76,60.87l-4-1.33-0.69-2.75,2.65-.95-2-3s0.09-1.52.17-1.9,4,2.47,4,2.47l0.35,3,2.47-.09,3.5-.19,0.26-1.42-3.25-.29-2.73-4.17,2.56-2.66,1.79-.67-1.46-1.61-1.36.47-0.43-3.7-2.39-2.56,3.33-4.93-3.33-.29-3.16.66-5,.85,0.85-2.94-0.35-6.83,2.31-.38L-81,22.46l4.1-3.41,3.67-.09,2.73-1.23,4,2.75,3.59-.29,0.34-1.42-1.79-1.71,4-.47,0.42,2.75,6.41-.29,4.45-.28,3.24,0.95L-44.22,18l-1.88-1.14-1.28.28-0.85-.66,0.94-1.8,1.45-.19,1.79-.66s3.84-.57,4.19-0.66,5-.57,5-0.57L-38.07,11l-4,.29L-43,9.75-45.5,8.52-45.93,7l0.35-2.28,1.7-1.23,4.27,0.1,6.15,1.14,3.08-.38,1.28-.66,4,1.23L-21.92,6l5.47-.19a9.59,9.59,0,0,0,1.88-1.8l0.25-2.18L-11.58.46l3.16-2.27,3.93-2L0.12-7.22,8.24-9.79,11-11.5,20-10.64l4.61,0.85,1.79-.66,3.76,0.38L33-12.73l2.3,1.7L34.72-9.5l2.73,3.13,4.1,2.08L44-4.95l2.65-1,2.48,2.28v2.46l3.93,3.79,2.22,0.19,1.88-2.18,3.42,1L63.77,5l1.45-.38L69.76,7l0.85-1.9,1.7,0.1,2.05,2.08,3.76,1.61,5,0.1,1.53-1.14,1.62,0.09,2.48-1.33,2.13-.38L91.8,6l1.71,0.28,2-1,1.72,1.43,1.45,0.76,1-.19,1.54,1,1.54-.85,2,1.7,3.76-1.61L110,7.09l2.9-2.47,4.79-2.28,2.73-1.61,2.39-3.51,2.74,1.14,1.79,0.76,1.19-1.23,2.74,0.28h2.13l2.63,1L137-3.49l3-.63,0.37,1.88,5.82,3.75L146.73,4l2.45,0.21,1.2,2.71,4.53,4.4-0.26,6,1.84,6.5,4.33,0.79,5.53,0.78,5.34,6.34-2,1.24-1,1.68L167.06,37l-3.44,1.56,1.08,3.1L165,45.28l1.9,2.69,1.18,6.5,2.76,3.48-2.49,6.83,5.27,3.11L174.32,74l2.63,1.25-0.19,4-2.35-.08-1.58,2.23-1.89,1-1.69-2.3-0.55-1.89-1.64-1.12-3.68,1.18-4.53-.59-5-3.09-4.33,1.71-3.35,2.82-2.61.61-2.08-4L137.58,78l-4.69,1.52-4.82.65-5.47-1.52-4.3,2.39-8.15,5-3.72.43L99.4,88l-2-1.09-4.24-.22-3.12-3L86.37,83l-6.45,3-3.06,2-5.08.87-2-3L64.74,85l-0.59,5.86,1.56,2.53,1,2.17L62,96l1,5-3.65,1.09,0.2,2-3.32-2.39Z"/><path class="cls-5" d="M171.67,32l0.52,0.34,3.13,5,4.54,3.78,1.7,3.79,5.61,1.26,3.41,1.58,3.13-1.58,3.41,0.63,3.12-5.36,2.84-.32,1.14-2.21,2.48-.63,1.14-2.84,7.1-4.34,6.25,6.23-2.27,1.9,2.55,5.36-3.12,3.16,4.77,3.78,4.55,4,3.07-1.07,1.65,6.4,0.44,4.1a31.57,31.57,0,0,0,2.37,3.93c0.73,0.82,4.19,4.54,5.31,4.54s4.53-.33,5.12-0.17,5.76,1.48,6.05,2L254,79.21l3,2.13,4.23,3.28a58.49,58.49,0,0,0,5.61,2.79c1.48,0.49,12.94,2.78,12.94,2.78l6.5-2.13s9-3.11,9.55-3.28,5.62-.82,5.62-0.82l2.66,1.14s3.25,1.64,2.8-.32a35,35,0,0,0-2.21-6.4c-0.2-.29-0.88-2-1.56-3.72l5.52,1,5.9-2.53,2-5.28,9.37-6.31,8.17-.63,2.56-2.84,4.26,0.94,5.39-1.26,3.06,6L355,64.73l6.54,2.21,2.84,2.52,6.18,0.32L374,71.35h3.12L380,77.27l8.17,3.78,7.67,7.89,10.44,0.31,0.28,4.65,2,4.1-0.85,2.84,2-.31v5.68l1.7,3.15-2,4.65,2,2.53-2,9.14-2.27,1.89,1.42,3.78-3.7,3.08,0.28,8.83,6,3.47-3.41,7.18,6.82,15.45-0.57,2.84,1.14,7.49,3.12,5,8.17,0.94,3.12,3.15,1.7,7.18-11,19.79,8.74,8.83,2.56,6.31,6,8.12,9.31,5.36,4.54,0.63v5.68l1.42,4,0.57,7.57,1.14,1.58,3.12-.32,3.06,0.95,0.57,4.1-0.28,5.91h-4.76l-6.82,2.53-1.7,1.89-5.4,3.47-2,8.51,0.28,5.6-0.57,5.68-3.63.95-9.94-3.47-1.71-2.21-0.28,1.57-5.9-.63-7.39-.95-7.6.95s-6.25-2.84-7.67-2.84h-6.25l-2-2.21-7.89-.87-4.55-4.73-2.27-11-6.18-11.28-6.53-.63-2.84,3.47h-5.4L351.63,273l-5.9-.56L338.34,279l-7-5h-7.67l-5.12-4.34-7.6-4.42-3.12-3.79L304.39,257l-2.84-1.57-3.69-2.45-6.46.24-3.41-5-3.41-3.79-1.7-5.68-1.14-3.47-2.84-2.76,0.85-2.21-3.91-2.21-0.57-5.36-4-4.73-4.54-6.23-3.13-5.05-1.39,2.19-2.73,3.55-1.79-.86-0.78-2.07-2.64-.17-1.4-1.55h-1.25l-1.86-1.55,2.49-1.2-1.4-1.56-2,.35-0.31,2.59,0.62,1.56,0.31,2.41-0.31,1.9-2.18-.18-0.93.61-1.4,1-1.25-1.13-2.33-6.21-2.88-.17-0.16-1.9-2.64-2.42,0.47-7.42-5.13-.35-0.93-6.13v-2.42l0.62-2.93,1.4-3.45-2.64-2.93-2.79-4.06-2.18-2.93-0.47-2.59-2-.52-1.09.17L217.42,164l-2.33-1.21-5.6-4.31-1.24-1.21-2.95.17L204.83,155l-1.93-.46,1.16-1.42,0.22-1.84-1.4-1.55-0.16-2.25-2.64.18,0.31-1.55L199,144l-1.4.34s-2.8-1.56-2.8-2.07-0.62-3.1-.62-3.1l-1.56-.69,0.94-2.41,0.31-3.62-0.78-1.65L192,129.29l0.74-3.2,2.1,0.21,0.72-.11-1.09-2.42,0.21-3.36,1.73-1.1,0.63-2.37,1.63-.53,1.11-.16,0.59-1.1-0.15-2.07-2.48-2.85v-3.28l0.63-1.85,2.58,0.16,1.3-1.07-2-.17-3-1.55-3.73,1.38-1.24-1.9-2.49-2.24-2.64,1.2,0.31-1.9-1.63-4.49-3-3-1.24-.86,0.62-2.42L181,86l-1.24-.34-1.24-2.42,0.31-2.41-2.48-1.38-2.08-.54,2.44,0.62,0.19-4-2.63-1.25-0.75-6.14L167.65,65l2.71-7.08-2.71-3.13-1.13-6.34-2.06-2.92L164.27,42l-1.88-4.38,4.33-1L167.46,33l1.77-2Z"/><polygon class="cls-6" points="197.15 46.83 193.72 46.15 192.23 46.96 189.21 41.48 189.5 39.59 186.24 38.18 185.82 33.31 182.7 33.78 181.28 35.04 179.59 33.78 177.32 33.94 175.48 30.32 171.65 32.08 166.49 25.49 160.66 25.07 156.16 24.03 154.09 17.57 154.47 11.43 150.52 7.05 149.78 5.38 151 4.88 154.4 5.66 156.52 3.93 159.21 3.78 160.06 2.99 163.31 4.25 164.87 3.15 169.26 3.78 170.44 2.67 171.24 3.78 173.22 3.31 173.5 5.04 172.65 5.35 174.63 7.08 176.33 6.76 180.01 11 178.59 11.79 177.46 13.36 180.58 17.92 187.09 21.84 186.67 24.83 184.97 25.14 182.13 26.08 185.39 27.81 185.96 29.7 188.64 30.8 191.9 32.99 194.45 32.84 195.86 35.51 194.31 36.29 195.01 37.86 197.56 40.06 196.43 41 196.99 46.03 197.15 46.83"/><path class="cls-5" d="M52.83,246l5.68,7.56,7.76,8.78,11,17.65,7.55,9.57,4.35,13.72,2.54,8.79,11.25,8.71,7.26,8,9.08,17.41,2.34,13.47H357.38l0.69-3.18-9.67-11.62-37.5-4.35-20.81-25.41-7.26-2.9-1.49-7.59-9-16.42,2-3.82-3.73-10.66-7.37-8.18-8.51-6.29-7.94-19.52-12.48-.63-2.91-7.56-13.47-2.17-26.74-4.59L166.48,206l-15.86-14.37-6.06-3-6.5-4-12-8.37-18.22-3.62-2.88,2.59-9.43,3.25-5.7,1.81-9.37,2.89-1.8,1.18,9.86,12.91,4.48,6-1.55.9-2.93,2-1.7,6.15-4.17,1.16-5.28,1.45-1.47,1.09-2.52,6-5.79,5.69-7.09-1.35-5.61-1.81-2.77-.08-0.64.54-0.39,2-0.26,2.89-0.4,5.28a21,21,0,0,0-.39,2.16v2.17l-0.65,4.18-1.56,3.46,0.51,1.59Z"/><path class="cls-5" d="M98.67-36.34l-0.48-.53,1.39-3.47,5.06,1.61h2.17l3.62,1.61,3.26,0.8,3.63,1.21,3.62,2h4.7l2.9-.8,5.81,2,3.62-.4,2.54,3.21,1.81-.8,6.88,4.43,1.82,0.4-1.46,2.41L152.84-21l3.25-.81,6.16-2.81,1.81,2.41,1.08-2.41h3.63L169.86-21l8.33,1.61L176-14.21l4.7,2.81,3.62-.8,4.39,3.76-0.8,1.59-1.42.47L186-4.65l1.55,1.41,1.28,0.16-0.42,1.73,3.54,1.42L194,2.26l-0.28,2.2L192.61,6l-3.11-.78-1.42-1.57-1.7-.31L185,4.62,180.72,3.2l0.28-2L175.34-.73l-1.27.31-3,2.52-1.84,1.73-4.39-.63L163.32,4.3,160.06,3l-0.85.79L156.52,4,154.4,5.71,151,4.93l-1.22.51-0.46-1-2.44-.21-0.56-2.5-5.83-3.75-0.37-1.88-3,.62L136.17-.61l-2.63-1h-2.13l-2.73-.28L127.48-.71l-1.8-.76L123-2.61l1.44-2.54,1-2.82L123-13.57l-0.13-2.11L120.33-20a22.8,22.8,0,0,1-.38-2.82c0-.84-2-2.25-2-2.25h-2.16l-2.13-2-0.38-1.81H111l-0.76-1.54-2.79-.71-2.53-.7-2.54-.56-1.65-3.66-2-.28"/><path class="cls-7" d="M96.4-38.12c-0.81-1.49-2.18-3.73-3.36-4.26-1.81-.8-9.38-7.29-9.38-7.29l-4-2.8-8-3.2-2.88-3.2-2.17-2-2.16,1.6-3.61-2-1.52-2.8-4.69-1.2L51-68.48v-2.89l-0.36-2,7.07,2.88,4-1.89,0.85-3.45-1.42-1.57L64.26-85l2,1.88,0.85-2.83,5.67,1.26v-2.82L69.08-90l-3.4-1.26-3.4-.63-1.7-4.08,4.25-.94h5.95L70.21-99.4,74.46-101l2-2.2,4.81,0.32-2.26-5-4.25,1.57-4.53.31-3.12,1.26-2.26-.63-0.4-6.55,5.09-3.63L71-118.38l6.55,0.4,5.74-1.62,2.18-5.25-2.18-4-2.55-2.74,0.36-8.08,3.28-4.45-0.73-4-4.73-1.52-2.83-3.23-4-1.62-3.64.4L63.34-157l-3.64-1.21-3.19,1.61-4.73-3.23-5.82-5.25-2.55,1.62H40.57L36.21-161l-5.09-4-6.92,1.21-2.46-4-1.09-5.56-2.91-2.83-4.36-2.42H10.09l-5.74-.4L1.8-186.38l3.27-3.14-4.73-4v-2.83L-5.12-200-7.3-198.4l-1.82-2-4.65,2-2.91,1.62L-21-199.21l-2.18,4.85-2.19.4-3.9-1.66-2.25-2.23v-2.2l-1.19-4v-3.08l-3.56-4.27,0.4-4.4,6.62,0.88,4.36,2.64,2.77-4,2.77-2.2-1.19-3.08-3.17.44-0.79-2.64-3.17-.44-6.62-.88,2-4.4-3.16-2.52H-38.3l-3.17-6.16L-47-243.78l2.77-3.52-4.65-3.84,0.69-5.27-3.06-2.2L-58-261.69l-4,1.76-4,.88-0.4-4-5.44-1.32L-74.53-263l-2.77-2.64-3.17.44-2,.88v-6.48l-2-3.51-2.26-4-2.77-1.32,0.79-7-3.57-2.64-2.38-2.51v-3.08l3.17-3.08-4-5.72,1.58-3.08-2.38-5.59,4-5.28,0.4-4,3.17-.88-2-6.16,3.17,0.44,2-3,3.06,1.64,3.57-3.4h6.74l5.84,1.32,0.4-2.64-6.63-3.52L-78.09-336l-4-3.08-3.17-.88-1.47-2.2,1.87-2.2-1.47-2.2-3.17,3.08-2.77,1.32-4-.44,10.7-9.11,8.21-7.91,7.92-8.35,8.6-6.92L-58-383.2l-7.53-8.67-7.42-.88-3.57-4,5.15-3.51v-3.52l-7.53-1.76,0.4-5.59,1.19-3.52-6.73-.44-0.4-3.08,2.38-2.2-2-1.76v-6.16h4.75l-3.57-6-4.24-7.92-5.15-3.52a8.39,8.39,0,0,1-1.59-2.64c-0.4-1.32,2.77-6,2.77-6l4-4.83-5.94-7-7.53-1.32-4.25-6,1.59-3.08-1.19-4.84s5.44,0.44,6.23-.88a23,23,0,0,0,1.58-4l5.15-.88,2.77-3.52,8.6-1.19,6.73-.44,3.57-4.4L-58-494.17l-1.59,2.2-8.21-.88,2.27,3.84,14.66,2.2-4,2.2-1.59,3.08,6.34-1.32,2.27-3.08,17.32,1.76,10.3,1.76,13.75,7,13,4.71,12.67,4.83,3.17-.44L27-461.43h3.57l5.15,4,2.77,5.71h2.77l-4,6.48-7.53,8.79L18-435.61l-9.5.88-10.59-2.2-12.56-1.76-11.89-2.64-5-1.32-12.28-4.84-11-3.08-6.74-3,11.09,9.11,5.44,5.28,3.17,0.44,5.55,1.76,8.6,5.28s3.57,2.08,2.38,3a10,10,0,0,1-3.17,1.32l-1.19,3.52,2.77,3.08,2.77,4,0.4,3.51,0.4,3.84,4.36,2.2,2,1.76,2.38-.88,7.41,5.27,3.57,0.88,4,2.2,6.23,0.44,3.17,1.32,1.19-3.08h3.57l0.4-3.08-2.38-5.28H8.91l-5.84.88-3.17-3.51-2-2.52-4-1.32,0.4-2.64,3.17-.88,0.79-3.08,3.57,0.44,4.65,2.64,4,2.2h2.77l-0.79,2.64h2.77l3.16-1.32,8.21,3.84,2-.76L31.78-409l2.77-3,2.77,1.64,4,1.32L39.7-413.3l-3.57-3.08-4.36-5.72-3.57-1.76L29-426.49l6.34-2.64,4-4.72,4.64-.44,4.75-1.32,4-6.6,7.42,3.08,2-1.32,4.76,2.2-0.4,3.08L68-433,69.19-436l2.38-.44,1.58,3.08,2.38,1.76,1.58-2.2-2.77-4.4s3.57-2.64,3.17-4-1.19-7.47-1.19-7.47L68-453.08v-13.63l-4-3.52-4.65-2.51,2.67-2.2,11.48,2.64L94-470.66l-0.79,6.15-2.77,1.76L84.53-461l-4.36,6.16,7.53,3.51,5.55,6,16.53-2.64,2-3.4,5.44-6.59L139-469.79H153.7l5.66-8.79,10.33-2.37,0.68,7.13-5.13,3.27s9.85,1.21,10,1.67a62.67,62.67,0,0,0,7.24-.31c1-.15,1.34-3.8,2.6-4a43.57,43.57,0,0,0,8.69-2.73l6.83,0.76,6.23,0.76,7.52-4.54,8.69-2.43,6.28,3.64-2.87,2.88,2.18,2.73,12.2-1.4-3.39-16.34,6.8-7.54s2.71,2.11,2.85,2.11l9.6,1.66,15.85,3.77,17,5,35.1,15.08L336-468.53l-6.79-12.56-11.32-2.52L305.4-497.43l-5.67-11.31L294.08-515l11.33-3.77-4.53-22.62h30.56l17,7.54-6.79,16.33L351.81-500l9.06-2.43,5.66,7.54,6.79,18.85,6.79,7.54-4.53,15.08-10.19,5-11.33,3.77,5.67,3.77,12.45,3.77,13.58-3.77,12.45-12.56,7.93-8.8L396-477.32h15.85L423.14-471l9.06,12.57L445.78-461l-10.19-5-6.79-11.31-22.65-8.8-20.38,2.51-9.06-7.54L377.86-505l-20.38-16.33,11.33-8.8-3.4-10.05h9.06l1.13,15.08,11.32,5,21.51,6.28L423.14-510l-20.38-7.54-9.05-11.31,12.45,6.28-2.27-10.05,6.79-1.26,14.72,3.77,10.19,7.54,11.32-1.26L439-530.1l-15.85-10.05,1.13-12.57,18.11-2.51H457v322.14l-1.9-6.74-2.35-6.54-6.29-5.28L441.32-249l-7.51-4-7.46.44-6.72.87-2,6.15-8.25,2.18-17.72,2.61L383-239.39l-2.75,3.92-5.11.44-7.46,1.74s-5.54,2.61-6.72,3.49-8.64.92-8.64,0.92l-10.26-.92-4.71.49L333-227.13l2.75,3.05v3.49l5.11,0.44-1.57,4.79a68.44,68.44,0,0,1,7.07.87c1.57,0.44,1.18,3.49,1.18,3.49L344-209.7h-5.5L337-206.15l5.11,3.92-5.5,7.84s-5.94,1.31-5.94,2.62,4.76,2.23,5.94,2.67a14.81,14.81,0,0,1,3.14,2.18l4.71,0.87,2.35,2.18,6.72,3.49,2,6.54-10.26,2.61-5.11.87-4.71-1.74-1.18,4-4.76-3.54-10.21-.44-2.36-4.36-5.94-.44H307l-3.93,2.62-6.28-2.62h-4.37l-4.32,3.05-2.75,4.41-4.71.44-5.94-1.36-3.93-4.36-3.93-.87-0.79,2.18,2,2.18v3.54L264.9-169l-0.4-3.54-5.5-5.23-4.37-3.05-2.35-3.92h-6.68l-7.9.44-4.32-3.49-3.14.44-2.75,2.18-3.53.44-3.19-3.49-5.89-1.31-1.18,2.61-4.32,6.1h-2.75l-2.8,3.05L198.73-176v3.92h-2l-3.14,4-3.14-.87,2.75,7.41,2.75,3.92-3.53,3.05-3.15.44-4.76-6.1-6.67-4.36-3.14,2.18,1.57,3.05-3.14,3.92-2.36-.44-0.4,9.21,4.72,3.49,0.39,3.49h-2.75L172-134.5l-1.18,4.36,0.79,2.67,4.32,0.87,2.75,1.31,2.35,3.05,0.39,3.92,0.79,2.62,6.33-1.74,5.49,1.31,5.5,6.1,5.1,7.46,3.19,3.49-0.39,2.18-4-1.31-0.39,3.05L209-93.85l3.14,1.31,0.64,1.85-0.69,1.38-4.23,2.75L206.54-83l-3.46.36-6.84,4.34-3.91-.36-2.27,10.71-1.31,4.34-2.81,2.17L185.29-56l4.44,3.25,3.58,0.36,2,5.65,1.63,4.7,1.63-2.89,0.32,2.53-0.65,2.89,1.63,5.06-0.33,2.17,1,4.56h2.28s-0.21,4,1.3,5.06,2.16,2.17,3.78,3.61,4.23,3.61,4.23,3.61L214.35-10l3.91,3.12-2.39,3.09-4,2.81L210.8,2.65l-2.17,1.61-6.89-2-2.9-4.82L196-4.18l-2.9-3.22-4-.8-4.71-4-3.62.8L176-14.25l2.17-5.22-8.32-1.61-1.09-3.62h-3.63l-1.08,2.41-1.81-2.41-6.16,2.81-3.26.8-3.27-1.61L151-25.09l-1.82-.4-6.87-4.43-1.81.8L138-32.34l-3.62.4-5.81-2-2.9.8H121l-3.62-2-3.63-1.21-3.25-.8-3.62-1.61h-2.17l-5.07-1.61-1.45,3.62Z"/><path class="cls-5" d="M244.44,213.56h-2.19l-3.66-1.65-3-.17-3-.69-4.82-.35-3.42.69L222.74,217l-1.33,4.66-2.33,2.24-0.15,2.76-2.31,2.4L191,227l-24.68-21.11-15.83-14.35-6-3-6.49-4-12-8.35-18.18-3.61,1.85-1.19-1.06-2.8L106,169l-1.14-2.89,1.05-.9L103.58,159s-2-5.84-3.28-9.62l3.88-2.12,9.58-7.16,16.16-11,0.59-3.69,1.56-2.17-1-8.25,0.2-4.48,1.5-3.69v-3.69l-2.87-5.42,0.59-4.56,0.79-2.4,2.95-1.11,3.29-.91,6.13-9L146.07,78l3.19-2.71,4.59-1.46L159.12,77l4.13,0.62,3.94-1.25,2.34,1.46-0.19,2.29L171,82.41l1.31-2.09,2.07-1.66,2.08,0.54L179,80.58,178.66,83l1.25,2.42,1.24,0.35L182.39,88l-0.62,2.42L183,91.27l3,3,1.63,4.49-0.31,1.9,2.64-1.2,2.49,2.24,1.24,1.9,3.73-1.38,3,1.55,2,0.17-0.78,1.73-3,.34-0.78.69V110l2.48,2.85,0.15,2.07,0.78,1.73-2,1.21-1.87-.69-0.15,2.93-2,1-0.62,2.42,1.09,2.42-0.46,1.55-2-.86-1.08,2.41,1.08,1.55,0.78,1.65-0.31,3.62-0.93,2.41,1.56,0.69s0.62,2.59.62,3.11,2.79,2.07,2.79,2.07l1.4-.34,1.4,2.07-0.31,1.55,2.64-.18,0.16,2.25,1.4,1.55,1.17,2.34-2,1,1.33,0.35,0.47,2.41,2.95-.17,1.25,1.21,5.6,4.31,2.33,1.21,3.26,2.41,1.09-.17,2,0.51,0.46,2.59,2.18,2.93,2.8,4.06,2.64,2.93-1.4,3.45-0.62,2.93v2.42l0.94,6.13,5.13,0.35-0.47,7.42,2.64,2.42,0.16,1.9,2.88,0.17,2.33,6.21Z"/><path class="cls-5" d="M50.16,220.73l-0.43-1.05Z"/><polygon class="cls-5" points="39.16 189.93 40.52 187.9 40.93 186.14 42.8 183.79 41.86 182.9 39.53 186.35 38.21 187.79 39.16 189.93"/><path class="cls-8" d="M455.07-239.83l-2.35-6.54-6.29-5.28L441.32-249l-7.51-4-7.46.44-6.72.87-2,6.15-8.25,2.18-17.72,2.61L383-239.39l-2.75,3.92-5.11.44-7.46,1.74s-5.54,2.61-6.72,3.49-8.64.92-8.64,0.92l-10.26-.92-4.71.49L333-227.13l2.75,3.05v3.49l5.11,0.44-1.57,4.79a68.44,68.44,0,0,1,7.07.87c1.57,0.44,1.18,3.49,1.18,3.49L344-209.7h-5.5L337-206.15l5.11,3.92-5.5,7.84s-5.94,1.31-5.94,2.62,4.76,2.23,5.94,2.67a14.81,14.81,0,0,1,3.14,2.18l4.71,0.87,2.35,2.18,6.72,3.49,2,6.54-10.26,2.61-5.11.87-4.71-1.74-1.18,4-4.76-3.54-10.21-.44-2.36-4.36-5.94-.44H307l-3.93,2.62-6.28-2.62h-4.37l-4.32,3.05-2.75,4.41-4.71.44-5.94-1.36-3.93-4.36-3.93-.87-0.79,2.18,2,2.18v3.54L264.9-169l-0.4-3.54-5.5-5.23-4.37-3.05-2.35-3.92h-6.68l-7.9.44-4.32-3.49-3.14.44-2.75,2.18-3.53.44-3.19-3.49-5.89-1.31-1.18,2.61-4.32,6.1h-2.75l-2.8,3.05L198.73-176v3.92h-2l-3.14,4-3.14-.87,2.75,7.41,2.75,3.92-3.53,3.05-3.15.44-4.76-6.1-6.67-4.36-3.14,2.18,1.57,3.05-3.14,3.92-2.36-.44-0.4,9.21,4.72,3.49,0.39,3.49h-2.75L172-134.5l-1.18,4.36,0.79,2.67,4.32,0.87,2.75,1.31,2.35,3.05,0.39,3.92,0.79,2.62,6.33-1.74,5.49,1.31,5.5,6.1,5.1,7.46,3.19,3.49-0.39,2.18-4-1.31-0.39,3.05L209-93.85l3.14,1.31,0.64,1.85-0.69,1.38-4.23,2.75-0.19.52,4.23-2.75,1.63-3.25,2-1.45,3.26,0.36,3.58-2.53,4.76-4.34,4.56-2.53,8.47-1.09,10.62,4.7,4.23-3.25,1.73,0.83s1.62,0.82,2.16,1,2.66,0.49,2.66.49l1.63,2v3.28L263-92l1,3.12,0.45,4.37,0.15,2L261.94-78l0.29,2.63,3.84,2,2.81,1.31-1.78.66-6.65-1.48-4.52.16-4,.33-3.1-1-1.63,1.64-3.1-.33-0.74,5.19-2.66,1.64,0.29,2,2.21,2,3,2.46,0.89,1.64-1.33.82L243.09-57l-4.67-2-5.76.16-1.48,3.44,2.36,2.63,4.87,0.49,3,3.12,3.1,6,5,6.23,0.74,4.59,5.32,0.82,3.49,4.36,2.66,0.49,3.1-.16,4.58,2.46,1.92,1.31L271-19.12l-0.15,3.28-2.22,2-1.48.82,2.66,3.61v4l3.1,1,0.59,3.28,1.48,1.64,2.6,3.28L278,7.05l1.62,1.31L279,10.16l0.44,4.53L278.28,17l-0.88,2.3L279,21.91l1.18,4.75,2.36,1-0.89-2.3,3.84,1.31,3.1,0.16,1.19,2.3,0.44,3.05,2.21,0.33-1,1.64-1.92.16L288,32.5l-1.33,2L287,37.75l1.18,1.48,2.07-1,3.4,1.8L296,44l3.55,2.3s-1.18,6.17-1.33,6.83,1.77,3.44,1.77,3.44l-0.44,4.92,1.92,9.18s2.81,7.48,3.25,8.14a34.88,34.88,0,0,1,2.21,6.4,1,1,0,0,1,0,.22,1,1,0,0,0,0-.61,35,35,0,0,0-2.21-6.4c-0.2-.29-0.88-2-1.56-3.72l5.52,1,5.9-2.53,2-5.28,9.37-6.31,8.17-.63,2.56-2.84,4.26,0.94,5.39-1.26,3.06,6L355,64.73l6.54,2.21,2.84,2.52,6.18,0.32L374,71.35h3.12L380,77.27l8.17,3.78,7.67,7.89,10.44,0.31,0.28,4.65,2,4.1-0.85,2.84,2-.31v5.68l1.7,3.15-2,4.65,2,2.53-2,9.14-2.27,1.89,1.42,3.78-3.7,3.08,0.28,8.83,6,3.47-3.41,7.18,6.82,15.45-0.57,2.84,1.14,7.49,3.12,5,8.17,0.94,3.12,3.15,1.7,7.18-11,19.79,8.74,8.83,2.56,6.31,6,8.12,9.31,5.36,4.54,0.63v5.68l1.42,4,0.57,7.57,0.74,1h2.76V-233.78Z"/><polyline class="cls-5" points="218.26 -6.87 215.88 -3.78 211.89 -0.97 210.8 2.65 208.64 4.26 201.74 2.25 198.84 -2.58 195.95 -4.18 193.06 -7.4 189.07 -8.2 184.35 -12.24 180.74 -11.43 176.03 -14.24 178.2 -19.47 169.87 -21.07 168.79 -24.69 165.15 -24.69 164.07 -22.28 162.26 -24.69 156.1 -21.88 152.85 -21.07 149.58 -22.68 151.04 -25.09 149.21 -25.49 142.34 -29.93 140.53 -29.13 137.99 -32.34 134.37 -31.94 128.57 -33.95 125.67 -33.14 120.97 -33.14 117.34 -35.15 113.71 -36.36 110.46 -37.16 106.83 -38.77 104.66 -38.77 99.59 -40.38 98.14 -36.76"/><polygon class="cls-5" points="37.59 106.42 27.85 111.64 23.61 112.75 16.6 112.21 14.85 115.79 10.93 115.79 8.61 117.89 6.41 116.93 8.96 123.1 12.26 125.28 15.83 125.21 17.66 126.38 18.98 125.05 22.85 123.88 27.07 119.68 29.95 119.6 32.12 118.67 29.39 114.93 31.14 113.06 37.73 107.13 37.59 106.42"/><path class="cls-5" d="M56.52,161.65l1.82-.7,2.34,0,3.13,4.35,2.55,0.44,2.94,2.39,5.48,0.66,11.62-9.52,9.46-7.37,4.47-2.44c1.24,3.78,3.29,9.63,3.29,9.63l2.36,6.15-1.06.91,1.14,2.9,2.52-.46,1.06,2.8-1.72,1.07-3,2.72-9.43,3.25-5.7,1.81-9.37,2.89-1.8,1.18,9.86,12.91,4.48,6-1.55.9-2.93,2-1.7,6.15-4.17,1.16-5.28,1.45-1.47,1.09-2.52,6-5.79,5.69-7.09-1.35-5.61-1.81-2.77-.08-0.81.45,0.24-3.44-0.33-1.26,0.41-1.26-0.16-1.36,0.33-1.81,1-5,0.73-1.44-0.65-1.63-0.41-3.71,0.65-3.16L55.61,194l1-2.26-1.38-2.61,0.9-3.43v-2.35l0.65-3.62-0.24-3.61L56,173.39l0.41-2.33-0.57-3.44,0.08-4.88Z"/><polygon class="cls-9" points="61.8 162.53 60.69 160.98 58.34 160.96 56.44 161.63 57.02 159.68 55.66 156.41 56.64 154.89 56.48 151.51 57.49 150 58.19 149.87 58.93 148.45 60.16 147.32 60.08 146.5 61.6 145.51 60.23 143.61 61.32 140.75 62.34 140.46 65.64 140.94 65.76 140.29 64.48 138.85 65.48 137.27 67.01 136.53 68.55 133.76 67.93 132.08 66.93 130.54 67.32 129.63 66.11 128.86 65.6 128.08 64.36 128.26 64.28 127.69 64.98 126.23 64.08 124.59 63.47 124.84 63.35 125.67 61.05 125.62 58.7 125.49 58.09 123.23 56.9 120.09 57.24 114.68 57.07 110.4 54.33 107.74 55.27 105.08 54.5 103.09 54.98 102.56 56.24 101.63 59.58 104.03 59.38 102.07 63.03 100.98 62.05 95.98 66.75 95.55 65.77 93.37 64.2 90.84 64.8 84.97 69.89 85.84 71.85 88.88 76.94 88.01 80.01 86.06 86.47 83.02 90.19 83.67 93.32 86.71 97.57 86.93 99.53 88.01 106.58 86.49 110.31 86.06 118.46 81.06 122.77 78.67 128.25 80.19 133.08 79.54 137.78 78.01 141.7 75.62 143.79 79.67 137.65 88.72 134.35 89.63 131.4 90.75 130.6 93.16 130.01 97.73 132.89 103.15 132.89 106.85 131.39 110.55 131.19 115.04 132.17 123.3 130.6 125.47 130.01 129.17 113.83 140.19 104.23 147.35 95.87 151.92 86.41 159.29 74.79 168.81 69.3 168.16 66.36 165.77 63.82 165.33 61.8 162.53"/><path class="cls-5" d="M-94,207.82l1.12,3.73-0.74,4.83,1.86,5,1.86,3.31-0.37,5.8,1.87,14.35-0.75,9.39,1.49,22.21,0.85,83.27H4.83l1.59-2.51L8,357.35l-0.43,2.32H84.66l-0.91-1.91-4.54-2.54-3.09-5.26-4.54-1.27-2.72-6.17-3.45-6.72,0.18-9.25,3.63-.55-0.13-1.95-5.66-4.41-5.39-8.81-1.42-2.52-1.42-4.09-1.7-1.89-3.68-9.75-2-2.83-5.1-11.64L41.32,275l-2-1.26,1.42-3.78-4.53-7.56-1.14-3.45-1.7-1.57,0.57-4.72-2.27-3.77-2.56-1.58-2.27-4.72-4-4.09-0.57-3.15-3.4-5v-2.84l-2-4.72-3.41-4.09,2-3.15L16.65,212l3.4,6,0.85,5.67,4.54,4.4,1.13,3.46,2,3.46L28,237.49l4.54,4.72,3.12,4.4,3.4,4.09,4,2.52,2.76-4.29-0.5-5.47,2.66-7.28,1-9,0.74-6.3-0.43-1.05,0.29-1.1L48,214.18,47,210.6l-2.64-5.67-5.12-15.24-1-2.33-1.56,1.15-1.46.91-2.65,1-2,.48-2.8-.66-0.7.7-1.67.3-1.06.67,0-1.45-2-.6-0.38,1,0,0.84L21,190.92l-2.52.85a24.34,24.34,0,0,1-3.43-.64c0-.17-1.94-2.76-1.94-2.76l-0.71-.53-1.52-.08L11.81,190l-1.44.94-1.4.26L8.38,189l-3.64-1.56,0.9-1,0-2.63H7.14l-0.78-1.07H5.21L3,184.14l-2.06.17-3-1.73-3.07-1.11-1.13.25,0.66,0.87L-6.68,184l-2.18.73h-1.48l-1.89.86,2.19-1.86s1.4-1.37,1.1-1.37a13.15,13.15,0,0,0-1.87.77c-0.15,0-2.67,1-2.67,1l-1.51-.43-1.36,2.17-1.09,1.51,0.58,0.56-0.89.43-0.62-.56-1.13-.39-0.19-.64-2.76,2.5-3.12,2.79-1.28,1.2L-32,195.73l-3,.22L-38.87,193l-2.6-1.17-1.48-.63-2,.27-5-.7-0.89-1.64-1.67-.39-2.14.56-3.27-1.77-0.5-1.25-3.38-1-3.78-.69-4.26-1-6.18-1.6-3.54-.91-3.42,1.3-3.76,1-1.9-.43-1.05-1-0.94-1.26-0.38.68V184l-2.18,1.39-0.38.7,0.33,3.3,1.49,4,0.74,2.49,0.37,3.73-1.49,3.72Z"/><polygon class="cls-5" points="50.46 221.92 49.64 220.91 49.22 219.85 49.51 218.75 47.98 214.18 47.03 210.6 44.39 204.93 41.75 196.97 39.27 189.69 38.33 187.54 39.65 186.1 41.98 182.64 43.64 178.54 44.53 176.13 44.85 174.41 45.66 171.35 45.9 168.89 46.87 161.34 48.66 158.36 48.35 157.71 48.6 154.31 50.19 154.72 51.37 154.31 52.21 155.03 54.57 154.2 54.75 152.79 54.85 151.59 55.27 150.86 55.83 151.69 56.48 151.51 56.64 154.89 55.66 156.41 57.02 159.68 56.44 161.63 58.34 160.96 56.52 161.65 55.94 162.74 55.86 167.62 56.43 171.06 56.02 173.39 56.52 176.11 56.75 179.72 56.1 183.33 56.1 185.69 55.21 189.12 56.19 191 56.58 191.73 55.61 193.99 53.08 200.77 52.44 203.93 52.84 207.64 53.47 209.21 52.77 210.71 51.79 215.67 51.46 217.48 51.62 218.84 51.22 220.1 50.46 221.92"/><polygon class="cls-10" points="56.1 184.42 55.28 184.42 52.44 186.68 50 186.96 48.61 187.31 47.97 185.59 48.45 183.97 49.18 181.53 51.7 180.08 52.36 178.99 50.08 178 48.45 178.36 48.61 177.19 48.45 174.66 47.72 171.41 48.69 170.88 48.69 169.52 48.86 167.26 51.05 167.45 53.74 165.55 54.72 167.35 55.87 167.3 55.86 167.62 56.43 171.06 56.02 173.39 56.52 176.11 56.75 179.72 56.1 183.33 56.1 184.42"/><polygon class="cls-5" points="48.6 154.31 49.83 152.57 49.75 151.34 50.18 150.04 50.29 148.91 51.96 145.12 52.4 142.79 53.02 140.38 54.49 138.64 54.96 135.8 54.81 132.6 57.37 128.78 58.73 127.87 59.2 127.27 58.7 125.49 61.05 125.62 63.35 125.67 63.47 124.84 64.08 124.59 64.98 126.23 64.28 127.69 64.36 128.26 65.6 128.08 66.11 128.86 67.32 129.63 66.93 130.54 67.93 132.08 68.55 133.76 67.01 136.53 65.48 137.27 64.48 138.85 65.76 140.29 65.64 140.94 62.34 140.46 61.32 140.75 60.23 143.61 61.6 145.51 60.08 146.5 60.16 147.32 58.93 148.45 58.19 149.87 57.49 150 56.48 151.51 55.83 151.69 55.27 150.86 54.85 151.59 54.75 152.79 54.57 154.2 52.21 155.03 51.37 154.31 50.19 154.72 48.6 154.31"/><polyline class="cls-10" points="42.2 183.08 43.57 183.99 43.42 184.76 42.66 185.06 41.44 186.28 41.44 187.5 39.46 188.88 38.54 187.66"/><polyline class="cls-10" points="55.23 151 55.23 151.49 55.47 151.64 55.4 153.71 55.17 156.2 55.1 157.76 55.85 158.81 55.85 159.79 56.3 160.42 56.13 161.16 56.19 162.11"/><path class="cls-10" d="M57.5,160.59l0.51-.86,0.37-2.38,0.19-.74,0-.14a0.54,0.54,0,0,1-.28-0.31,6.51,6.51,0,0,1-.2-1C58,155,58,153.8,58,153.8l0.09-1s-0.35,0-.35-0.19,0-.86,0-0.86l-0.33-1.09"/><polyline class="cls-11" points="56.24 101.63 59.58 104.03 59.38 102.07 63.03 100.98 62.05 95.98 66.75 95.55 65.77 93.37 64.2 90.84 64.8 84.97 69.89 85.84 71.85 88.88 76.94 88.01 80.01 86.06 86.47 83.02 90.19 83.67 93.32 86.71 97.57 86.93 99.53 88.01 106.58 86.49 110.31 86.06 118.46 81.06 122.77 78.67 128.25 80.19 133.08 79.54 137.78 78.01 141.7 75.62 143.79 79.67 137.65 88.72 134.35 89.63 131.4 90.75 130.6 93.16 130.01 97.73 132.89 103.15 132.89 106.85 131.39 110.55 131.19 115.04 132.17 123.3 130.6 125.47 130.01 129.17 113.83 140.19 104.23 147.35 95.87 151.92 86.41 159.29 74.79 168.81 69.3 168.16 66.36 165.77 63.82 165.33 61.8 162.53 60.69 160.98 58.34 160.96 56.44 161.63 57.02 159.68 55.66 156.41 56.64 154.89 56.48 151.51 57.49 150 58.19 149.87 58.93 148.45 60.16 147.32 60.08 146.5 61.6 145.51 60.23 143.61 61.32 140.75 62.34 140.46 65.64 140.94 65.76 140.29 64.48 138.85 65.48 137.27 67.01 136.53 68.55 133.76 67.93 132.08 66.93 130.54 67.32 129.63 66.11 128.86 65.6 128.08 64.36 128.26 64.28 127.69 64.98 126.23 64.08 124.59 63.47 124.84 63.35 125.67 61.05 125.62 58.7 125.49"/></g><g class="cls-12"><path class="cls-13" d="M121.48,123.9a31.58,31.58,0,0,1,26-15.31"/><polygon class="cls-14" points="146.89 110.62 150.36 108.59 146.86 106.6 146.89 110.62"/></g><g class="cls-12"><path class="cls-4" d="M139.84,146.85a35.87,35.87,0,0,1-28-19.65"/></g><g class="cls-12"><path class="cls-13" d="M82.89,92.66a21.44,21.44,0,0,1-8-18.31"/><polygon class="cls-14" points="72.84 74.72 75.22 71.47 76.85 75.15 72.84 74.72"/></g><g class="cls-12"><path class="cls-13" d="M75.82,130.42A16.16,16.16,0,0,0,61.61,133"/><polygon class="cls-14" points="60.8 131.13 59.44 134.92 63.4 134.2 60.8 131.13"/></g><g class="cls-12"><path class="cls-13" d="M66.62,159.28S54.95,161.13,38,189.56"/><polygon class="cls-14" points="36.79 187.84 36.13 191.77 39.87 190.37 36.79 187.84"/></g><g class="cls-12"><path class="cls-13" d="M62.18,154.76s-17.06-5.59-45.26,2.58"/><polygon class="cls-14" points="19.12 158.87 15.31 157.57 18.34 154.92 19.12 158.87"/></g><g class="cls-12"><path class="cls-13" d="M81.37,155.27a19.28,19.28,0,0,0-1.71,17.64"/><polygon class="cls-14" points="77.64 173.18 80.91 175.53 81.31 171.52 77.64 173.18"/></g></g><g id="Text"><g class="cls-15"><path class="cls-5" d="M115.22,130.37s3.39,3,4,5.57,1.07,3,2.93,3,1.85,3,2.78,4.59,3.08,1.32,4,1.65,3.4,0,3.08,1.64a17.56,17.56,0,0,1-1.54,3.94v2.8l-4.87,2L123,151.79l-3.43,4.61-1.79,4.31,1,8.16L114,164.72l-2.56-3.44-2.82-1.44,0.51-5.46-4.86,1.72L104,153.8l-0.64-.66,2.08-2.07-1.24-2.24-1-4.19,2-1.59,0.75-2.8,2.49-3.64,3.74,0.84-2.25-3.35v-2l3-.28Z"/><path class="cls-5" d="M23.71,95l-1-6.59,1.55,0.11,2.53,0.84L30.07,90l1-1.41,1.77,0.56,2.7-.56,1.53,1.13,1.26-3.1,1.27-1.69,1.52,2.82,2.54,0.56L46,88l3.55,1.69L51,88,50.78,86.3l2-1.13-3.3-.56L51,82.08l1.27,0.85,2-1.69,2.7-.28L56.11,78.7,57,76.45l-1.94-2.25,0.76-1.41H57l2.54-1.6h2l1.27-2.81,2.79,0.28V66.13h2.79l2.28,0.28L72,69.5l5.83,2.25,4,5,2.79,1.69h2l3.3,2.82,6.34,0.85,5-.28,3.3-2.53h2.79l1.52,3.66,0.51,4.5,2,0.28-1.27,3.38,2,1.69,4.56,1.41-0.51,1.69-2.79-.28-2.53.75,1.27,3.94-0.53,1-1.24.88-2,.14-2.15-1.54,0.63-1.26-1-.14-0.12-.84-2.27-.83-1.64.55-0.63-1.4L97.73,97l-1.26.42L94.2,95.94l-0.88,2H91.17L89,96.12,88.27,97H86.76l-1.51-.88-3-.14s-3.15-.42-3.65-0.42,0-1.26,0-1.26l-1.94-1-1.76,2.1-3.4-1.12-1.39,1.12-2.65,3.68-2.27-1.12-3.4-4-2.39.56L58.6,97l0.51,2-0.38,1.4,0.5,2-0.75,1.26,1.64,1.53,1.26-.14,2.27,4.47,1.51,1.68,0.13,1.68L66.17,114v2.38l1.26,0.85,0.88,2,1.39,0.84,2,1.3,2,2.66,0.88,2.1,1.76,0.56,4.2,5,3.15,2.52,0.76,3.21,3.15,2.8,3.15,1.68-0.5,2-1.87.58-3.18-3.23-4.69-2.6-2.45-4-4.95-.87L69,131.4l-5.21,1.45-1-3.46-5.46-3.76L51.43,120l-2.86-4.62,6.25-.29-3.13-2.6-4.17-4.34-2.86-4.91L42.83,95.9l-6.52-4.34-3.75,7.05L31,98.91l-2.08,4.92L24,97.75,25.8,95.9Z"/><polygon class="cls-5" points="136.24 160.15 138.85 166.22 137.81 170.09 138.59 174.43 136.51 175.59 139.11 179.35 137.55 181.95 139.37 186 140.93 185.71 141.71 189.47 144.94 189.47 146.09 190.55 147.71 196.48 143.32 199.77 140.97 207.73 139.1 208.43 136.13 210.5 137.23 214.15 134.88 217.13 134.06 218.69 130.51 216.47 130.77 213 128.17 208.66 122.7 206.36 119.99 202.01 121.55 202.01 121.55 199.13 119.47 196.52 119.99 190.91 121.55 188.89 120.51 186 121.03 179.93 119.73 179.06 122.18 175.3 122.18 170.38 118.95 168.94 117.91 160.72 119.73 156.39 123.22 151.76 125.82 155.53 130.77 153.5 131.82 158.7 136.24 160.15"/><path class="cls-5" d="M88.42,144.47l1.87-.58,0.5-2-3.15-1.68-3.15-2.8-0.76-3.21-3.15-2.52-4.2-5-1.76-.56L73.73,124l-2-2.66-2-1.3-1.39-.84-0.88-2-1.26-.85V114l-0.88-1.26-0.13-1.68-1.51-1.68-2.27-4.47-1.26.14-1.64-1.53,0.75-1.26-0.5-2,0.38-1.4L58.6,97l0.76-2.42L61.76,94l3.4,4,2.27,1.12,2.65-3.68,1.39-1.12,3.4,1.12,1.76-2.1,1.94,1s-0.51,1.26,0,1.26,3.65,0.42,3.65.42l3,0.14L86.76,97h1.51L89,96.12l2.15,1.82h2.14l0.88-2,2.27,1.45L97.73,97l3.44-.14,0.63,1.4,1.64-.55,2.27,0.83,0.12,0.84,1,0.14-0.63,1.26,2.15,1.54,2-.14,1.24-.88-1,1.83,2.29-1.68h2.53l0.26,4.22-2.79,2.81-0.51,4.78,0.51,2.82,4.05,0.56,4.82,4.69-3.29.56h-3L118,125l1.52,1.13-0.51,3.1-3,.56-3,2-3,.29v2l2.29,3.38-3.81-.85-2.53,3.66L105,143l-2,1.6,1,4.22L105.3,151l-2.12,2.08-3.1-3.1L97,148.87l-3.39-2.6H90.19Z"/><path class="cls-5" d="M123,151.79l-3.31,4.6-1.82,4.33,1,8.21-1.13-8.23,1.79-4.31Zm-14.7-15.29,3.72,0.82-3.64-.7-2.49,3.64-0.75,2.8-2,1.59,1,4.19,1.24,2.24-2.08,2.07L104,153.8l0.25,2.24-0.4-2.26-0.66-.66L105.3,151,104,148.79l-1-4.22,2-1.6,0.77-2.81Zm0.18,23.36,0.52-5.49-0.45,5.48,2.8,1.46Zm17.3-4.33,4.64-2v-2.8a17.56,17.56,0,0,0,1.54-3.94c0.31-1.64-2.16-1.32-3.08-1.64s-3.08,0-4-1.65-0.93-4.59-2.78-4.59-2.31-.33-2.93-3-4-5.57-4-5.57l-2.32,1.49-3,.28V134l0-2,3-.29,3-2,3-.56,0.51-3.1L118,125l-2.54-3.1h3l3.29-.56L117,116.61l-4.05-.56-0.51-2.82,0.51-4.78,2.79-2.81-0.26-4.22h-2.53l-2.29,1.68,1-1.83,0.53-1-1.27-3.94,2.53-.75,2.79,0.28,0.51-1.69-4.56-1.41-2-1.69,1.27-3.38-2-.28-0.51-4.5-1.48-3.55,1.37-.38,2.17-1.45,2.83,0.24,1.52-1.69,1.3-.24,1.52-2.65,3.26,1.2,3.49-1,1.74,0.72L129,74.65c0,0.15,6.78,6.51,7.81,8s3.39,7.52,3.39,7.52l9.22,3.76-0.78,5.32,1.56,4.05,2.87,2.9,6.25,1.15,1.82,2.6,3.91-3.47,5.83,1.45v2.31l-3.65-.29-0.78,1.45,2.34,3.18,0.94,2.22-1.2,2.12-2.08,3.59-0.52,4,2.34,4.34,0.26,1.44,4.69,2.89,2.34,4.34-2.34,6.19h-3.65l-2.34,1.73L168,150v3.18l2.34,1.16v2.31L168,158.19l-0.8.51-1.56-1.45-2.71,2-1.83-.86-4.43,2L153.8,159l-2.61,1.45-1.3,2.31L146.51,161l-4.79,2.9-0.26,4.34-3.39,1.85,0.78-3.87-2.61-6.08-4.43-1.45-1-5.2Z"/><path class="cls-5" d="M152.09,190.72l-6-.17-1.14-1.09h-3.23l-0.78-3.76-1.56.29-1.83-4,1.56-2.61-2.6-3.76,2.08-1.16-0.78-4.33,1-3.87-0.78,3.87,3.39-1.85,0.26-4.34,4.79-2.9,3.39,1.74,1.3-2.31L153.8,159l2.86,1.45,4.43-2,1.83,0.86,2.71-2,1.56,1.45,0.8-.51,3.37,4.85,3.91,1.74,0.78,2.6,2.34,4.46-0.52,2.89,0.26,5.5-2.61.11L174.28,184h-8.42c-1.09,0-3.62,1.38-3.62,1.38l-4.83,4.33-4.21-.35Z"/><path class="cls-5" d="M266.29,122l-1,4.22-1,.27-7-.86-2.61-4.92-1.83,2.89-2.71-2.31-4.43-.29L243,117.7l-5.73-.29-2.61,2.31-9,1.85s-4.68,3.76-5.21,6.36-5.21,2-5.21,2l-2.6-1.15-4.54-2-2.86.58-4.17-.58-3.39,1.16-4.17.58-6-3.18-3,1.15-1.56-2h-3.65l-1.3,1.45-4.43-1.15-0.78-2,2.35-.87v-2.72l-5.47-2.6-1-2-2.34-3.18,0.78-1.45,3.65,0.29v-2.31L165,106.42l-3.91,3.47-1.82-2.6L153,106.14l-2.87-2.9-1.56-4.05,0.78-5.32-9.22-3.76s-2.34-6.07-3.39-7.52S129,74.8,129,74.8l2.87-.58H137l1-2,5.83-2.14,1.57-5.21,3.12-1.45,1.3-7.81,2.87-4.92,2.08-2.31,1-4.45,5.46-5.21,5.32-1.16,2.65-4.64L173.25,31l9.61,1.45,8.19,1.45,8.29,3.88,3.05,2.42,5.24-3.88,9.07-2.91,4.8-.48,1.74-4.36,1.65-.67,1.43,0,2.15,0.15,2.54,1,2.82,2.23,1.88,3.42L238,40.43l1.07,1.49,1.61,2.83,2.69,0.74,0.27,2.08,2.82,3,1.21,1.94,4.43,3.87,0.39,1.94,1.07,1.93L255,63.51l-0.41,2.38,0.54,2.38L254,71.1,253.28,73l0.27,1.79-0.27,1.94,0.8,1.93L254,81.22,255.29,83v1.64l-0.67,2.08,1.88,2.53L260,93l5.7,1.49,0.41-2,1.24-.12,3-1,1.14-.23,1.34-1.49,2.15-.12,3.52,1,1.66,2.88-0.21,1,0.14,0.56,0.67,0.9-0.94,1.77L280,101l-1.47,1.78-2.42.6-3.08.15L272.2,105l-1.88-.3,0.81-1.79-0.41-2.23-0.13-1.64-1.61.3-1.34.75,0.94,1.19v3l-1.47,1.79,1.2,0.59-1.07,1.49,0.27,0.89,1.47-.59-0.27,1.79-1.48,1.34-2.41,4,1.2,2.23-0.54,1.78Z"/><path class="cls-5" d="M178.17,180.33l-0.3-5.61,0.52-2.89L176,167.37l-0.78-2.6L171.36,163,168,158.19l2.32-1.51v-2.31L168,153.21V150l-0.78-2.6,2.34-1.73h3.65l2.34-6.19-2.34-4.34-4.69-2.89-0.26-1.44-2.34-4.34,0.52-4,2.08-3.59,1.3-2.31,5.47,2.6v2.72l-2.35.87,0.78,2,4.43,1.15,1.3-1.45h3.65l1.56,2,3-1.15,6,3.18,4.17-.58,3.39-1.16,4.17,0.58,2.86-.58,4.54,2,2.6,1.15s4.69,0.58,5.21-2,5.21-6.36,5.21-6.36l9-1.85,2.61-2.31L243,117.7l2.61,3.3,4.43,0.29,2.71,2.31,1.83-2.89,2.61,4.92,7,0.86,1-.29L265,134.29l-5.47-.29-2.08,4.34-2.61.58,0.78,9.65-2.86,4.05-1.93.29L249,155.81l2.61,1.16,2.71,2.3,1.56,2.89,3,3.58-1.43,0-1.65.86L254,166l-1.55.86-2.09-.21-1.65-2.37-1.75-1.19-1.85.75-1.75-.54-1.26,1.95L239,166.43l-1.85-.43-1.17.54-0.2,2.1-3.6,1.52,0,1.66-1-.48L228,172.88l1.56,2.43,0.16,4.33-8.11,1-5.93.69-2.34-1.9h-3.9l-3.63-2.08-5.93-1.73-8.11,2.77h-7.37l-3.12,1.91h-3.14Z"/><path class="cls-5" d="M324.46,88.41l5.48-1.83c0.31-.12.21-1.27,0.21-1.27l4-1.27,4.55-3.33,3.91-.46,1-1.15-2.18-1.38-0.73-3.11-1.63,1.72-3.94-1.15-0.42-1-5.07.46L323.93,76l-4.24-1.49-3.08-2.41-5.18-.32-0.31-1.5,2.17-.12,0.83-1.84-5.8-1.61v-1l8.18,1.27,4.22,0.12,3.52-2.53-5.9.34-3.6-1.49-0.1-4.25-2.69,4.6-3.73-1.15L306.66,62l-3,1.84-3.41-.46L294.46,66l1.24,2.19-2,2.52-0.31,1.7-1.77,2.3-1.86-3.08-2.48-1.38-0.73-1.72-1.24,1,0.83,2.07,1.76,0.66,2.8,4-0.83,1.27-0.73,1.72-3,2.07-0.52-.81h-0.83l-1.66,1.72-1.86,2.3-0.83.23-0.83-1.72-1.56,2.18,0.2,1.5,1.55,0.34-0.62,1.27,1.13,0.46L281,91.4v3l-1,.11,0.21-1-1.66-2.87-3.52-1-2.15.12-1.34,1.49-1.14.23-3,1-1.24.12-0.41,2L260,93l-3.41-3.56,0.41-.92,2.17-.69,2.07-.8-0.52-3.11,0.73-.11,0.2-1.15,2.08-1.49,1.86-3.45,1-1,1.44-3.33-1.66-4.57,0.11-1.38,3.83-2.07,0.93,3.33,1.35-1.61,1.53-.35,3.42,1.84L278.4,68l1.35-.11,0.62,2,0.94-.69,2.48-.46,0.62-1-1.76-1.15L281,65.1l1.24-1.38L281,59l-2.19-.49-3.05-1.94-0.87-4.85V47.44l-3,1.83L268,45.51l0.87-7.75-3.49-3.88L260.59,30l-3.5,1.94-2.62-2.42-6.88-3.39L241,22.36l-5.24,1.83-6-.86L228,26.61l-4.8,1.94-1.74,4.36-4.8.48-9.07,2.91-5.24,3.88-3.05-2.42-8.29-3.88-8.19-1.45L173.25,31l-3.93,1.94L166.27,30l-9.5-5.33V20.91l2.19-3.39,3.49-7.27h4.27L164.18,5.4,161.57-.41l5.14-6.67,6.54-4.84,3.93-6.79h3.05l3.49-5.7-2.62-2.91,0.44-2.42-5.24-9.69-2.62-5.33h6.55L185-50l6.88-.49,3.5-2.42,3.49,1,9.94,1.45,8.3,1,6.54,1.83,5.24,0.49,6,3.39,4.8-1.45,4.8-.49,4.36,1,3.83,4.36,2.19-2.9,5.23-1.45L265-39,268-41.37l3.92-.49,3.83-.48,3.05,3.87,4.37-2.42L281-45.25l5.67-9.1,3.93-.48,6-1.45,5.68,2.42,2.62-.49,2.62-5.81,5.23,2.91,3.5-1.94,5.57-2.42L324-59.19l2.62-1.94,6.55,4.36v3.39l5.67,4.84-3.92,3.77L338-36l6.88,0.49h3.93L354-32.65l3.5,3.4,1.31,6.67,3,4.85,8.3-1.46,6.11,4.85,5.23-2.91h3.39l3.06-1.94,7,6.3L400.54-9,404.37-11l4.36,1.46,6.11,3.39,4.37-.48L424-4.66,427.4-.78,433.08,1,434,5.89,430,11.22l-0.43,9.69,3.05,3.28L435.26,29l-2.62,6.3-6.88,1.94-7.86-.48-1.74,3.39L410,44.54l0.44,8.61-10.82.48-3.05,2.91-3.49,2.91-3.93,2.9-3.92-1.93-2.53,3.88-7.85-1-4.37,7.75-4.36-2.91-1.74,1.94-5.14,5.7,6,6.3,7.42,9.69,6.12-1.46,3.92,1.46,3-1.94,5.23,1.45-2.61,2.91L387,98l-6.88.48L374.89,97l-3.05,2.91-4.37,2.91-9.07,3.39-2.62,4.85-4.8,1-8.3-1.45-0.87-9.69-0.43-4.73-2.53-2.42-8.29-1-3.93.49Z"/><polygon class="cls-5" points="-63.63 43.3 -71.7 42.33 -72.57 39.92 -70.64 33.94 -71.42 31.36 -69.1 26.64 -69.1 26.64 -68.47 23.97 -67.74 20.78 -61.51 12.67 -66.43 10.74 -69.47 10.9 -73.23 8.01 -74.98 8.33 -78.89 9.78 -80.19 7.2 -83.67 8.01 -87.58 3.02 -90.29 1.71 -90.16 -1.3 -88.04 -3.39 -88.87 -5.88 -91.69 -7.18 -94.05 -12.28 -92.74 -15.21 -89.33 -17.12 -90.98 -23.65 -95.23 -25.91 -94.21 -29.16 -96.17 -32.28 -94.08 -34.12 -93.7 -36.53 -91.28 -40.21 -95.66 -48.75 -92.93 -50.45 -88.08 -49.03 -82.48 -52.29 -82.22 -55.83 -77.89 -57.42 -78.77 -63.64 -83.5 -63.76 -82.57 -67.54 -76.92 -67.73 -75.32 -79.63 -73.61 -78.83 -72.33 -81.02 -77.67 -83.18 -76.59 -88.14 -64.83 -88.78 -63.4 -81.45 -59.64 -84.28 -59.34 -88.84 -57.23 -87.13 -57.55 -83.16 -56.29 -80.5 -55.47 -80.86 -55.03 -86.71 -55.85 -90.14 -54.41 -93.19 -50.38 -91.74 -45.4 -92.47 -43.85 -91.25 -38.33 -86.19 -36.77 -87.58 -42.12 -93.47 -46.97 -93.69 -50.12 -94.94 -49.59 -97.23 -47.52 -98.5 -50.99 -101.04 -54.14 -101.59 -52.18 -104.36 -48.54 -106.98 -52.7 -110.76 -53.62 -114.83 -43.76 -113.87 -41.71 -113.55 -40.11 -113.68 -36.66 -112.36 -34.65 -112.43 -32.98 -109 -33.64 -105.25 -30.98 -105.91 -30.56 -103.27 -28.92 -105.14 -26.44 -105.2 -23.91 -102.6 -19.69 -102.91 -17.12 -104.07 -17.53 -100.92 -21.71 -96.25 -19.74 -94.65 -16.23 -95.45 -14.11 -95.37 -11.74 -93.48 -8.46 -98.25 -2.21 -99.7 0.89 -102.14 3.64 -105.73 8.96 -107.36 12.54 -106.7 6.35 -104.09 6.01 -101.97 10.83 -104.19 13.44 -103.91 13.81 -101.85 18.28 -98.46 22.8 -99.13 23.91 -92.66 31.11 -89.35 31.8 -82.42 32.94 -79.48 32.03 -75.23 29.76 -73.86 29.05 -71.39 34.25 -67.21 37.5 -64.43 36.71 -62.04 35.57 -59.78 38.03 -58.33 39.85 -55.68 38.09 -50.2 38.48 -44.18 42.38 -40.83 43.68 -38.04 40.69 -28.3 38.87 -27.94 34.42 -32.1 31.84 -31.91 33.73 -29.96 27.42 -27.65 22.22 -25.27 18.06 -22.59 14.3 -21.45 11.61 -18.69 10.05 -19.92 5.2 -18.23 2.38 -13.57 1.49 -15.4 -1.02 -17.16 0.18 -13.13 5.3 -8.9 3.9 -4.47 9.02 3.45 13.2 4.68 18.56 10.26 21.72 12.53 26.43 15.82 25.5 20.7 24.05 22.02 23.07 22.12 20.89 20.27 19.86 25.91 14.1 27.46 10.13 32.2 13.82 36.23 12.55 38.6 15.21 41.08 14.1 45.31 10.04 42.84 10.04 40.98 4.28 40.36 0.74 41.91 -7.54 42.73 -11.03 44.59 -12.47 46.17 -17.64 46.55 -19.12 43.87 -26.25 43.35 -29.4 49.09 -31.04 47.12 -34.2 43.76 -39.98 45.29 -44.65 41.16 -51.4 41.42 -52.02 39.14 -54.96 37.5 -57.35 39.33 -56.2 41.47 -59.36 42.69 -63.63 43.3"/><path class="cls-5" d="M76.1,16.82l-1.27,3.35L74.2,17.7,74.81,20ZM40.87-28.88L43.68-38l-1.3-2.79-3.9-3.35-0.39-6,1.77-5.48L38-58.33l-2.46-1.45L36.71-62l0.79-2.39-3.25-2.78L29-71.39l0.71-2.46L32-75.23l0.9-4.26L31.8-82.42l-0.69-6.93,0.56-.35,1.94,1.17L35-88.61v-1.8l0.45-1.17L33.14-93l-2,1.17L29.65-93v-1.17l2.75-.09L40.21-97l5.66-1.88,4.53-.54,4.12-1.44,5-.45,4.13-5.74s1.78-.81,2-1a14.08,14.08,0,0,1,2.67-.09L74.08-111l5.55-1.08,5.5-1.71,5.26,0.09,4.36,2.16-2.42.18,1.94,2.78v2.16l1.86,2.24,2,0.81,2.39-.18,2.43,0.45,2.59-.36h1l-1.38,1.62,2.1,0.09,1.61-1.17,1.79-.45,2.42-1.8,11.21,1.26,5.26,0.9,3.48-.27,4.37,0.72,8.54-.45,10-.18,1.94-.18,1.54-.81,5.74,3.23,1.42,0.27,2.35,3.14,0.32,3.28,1.79,5,1.21,4.49,2.19,4.67,1.7,2.25v1.53l1.3,6.33-1.21,3.23-2.11.9-4.61,2.24L166.84-59l0.81,1.7,4.45,0.81,2.19,2.25-0.24,4L173.56-46l0.36,1.21,2.39,5.31,5.24,9.69-0.44,2.42,2.62,2.91-3.49,5.7h-3.05l-3.93,6.79-6.54,4.84L161.57-.41l2.61,5.81,2.53,4.84h-4.27l-2-.29-1.87-1.08L157.2,9l-3.66-2.24-0.15-1.08-1.95-1.41-4.11-2-2.77.75L141.23,2l-1.87.08-3.13,3.15-2.61-1.08-1.5-1.49L130.32,4l-1.94-.91h-1.73l-2.16,2.49-1.94,1.75L120,7.47l-1.65-4.23-1.94-.17L114.27,1l-0.45-2-1.5.41-1.42,1-1.79,2.33L106,3.32l-0.22-2.74L104,0.42l-2.83.35,2.71-.5V-1.88l-3.79-2.06L99.94-5.22,99-7.79l-2.66-1-0.93.52L91.84-10l-1.28-.77L90-10l-1.74.26-3.24-3,1.16-3.72-2.08.64-3.25.13-2.63-1.54L75.9-18.83l-2.78-.77-0.23,1.8,1.62,2.31L73.36-14l-2.43.9a2.38,2.38,0,0,0-.58,1c0,0.39-1.85-.9-1.85-0.9l-0.81-2.44-1.85-1.28-2-1.93L62.24-19v-0.9L65-21.92l0.24-1.29-1.39-1.15L62-24H60.86l-1.85.9-0.23-1.38-1,.1-2.06-1.89-3-.39-2.43-.26-1.16.13-1.27-2.18L47.7-31.13l-1.62-.13-2.66-.64v3.09Z"/><polygon class="cls-5" points="-79.55 93.54 -79.02 90.15 -81.5 86.29 -82.82 84.29 -84.5 81.35 -83.84 80.88 -80.5 78.83 -77.83 80.7 -68.6 79.54 -66.48 78.07 -62.07 74.49 -61.55 70.31 -57.09 66.15 -55.6 69.52 -57.44 72.59 -52.9 73.96 -53.06 80.09 -49.17 80.17 -48.53 76.04 -45.65 73.48 -46.54 67.24 -43.57 66.16 -41.08 71.54 -34.35 68.4 -33.41 71.5 -29.54 70.78 -32.55 66.5 -30.49 63.75 -28.02 65.58 -25.82 64.82 -26.51 58.56 -21.38 59.54 -18.42 60.6 -15.62 56.16 -9.83 54.83 -6.69 54.91 -0.21 53.74 1.57 59.83 11.24 63.22 18.24 65.03 25.04 65.69 20.64 70.35 24.64 73.63 22.74 78.21 24.03 80.5 28.23 83.6 28.43 86.26 26.23 86.04 23.84 82.27 19.29 83.63 16.77 81.63 14.09 85.13 10.94 88.46 7.15 90.03 6.9 87.54 2.91 89.36 3.16 95.88 5.93 98.08 6.58 104.86 3.39 105.45 3.38 110.03 4.76 114.67 8.11 120.46 12.34 123.41 17.28 126.51 17.84 129.88 23.64 129.91 25.49 132.21 25.9 136.5 29.22 139.56 30.58 148.77 35.24 153.73 41.34 159.21 44.1 161.41 44.9 164.75 49.05 164.51 52.64 165.71 61.27 166.1 69.51 164.94 70.64 167.1 67.82 169.02 64.61 171.89 65.03 176.19 78.67 185.65 82.11 185.26 86.56 188.19 99.82 193.31 100.11 196.25 106.29 200.12 108.8 202.13 108.99 206.45 107.58 208.66 107.88 214.12 100.67 211.5 99.32 204.8 95.57 202.03 92.84 202.56 89.42 203.18 86.07 202.18 85.95 198.54 81.55 198.58 78.27 203.07 78.03 204.88 78.49 209.63 76.69 212.58 77.92 215.64 79.29 218.26 80.43 220.42 84.94 221.5 88.83 225.14 91.19 228.08 90.52 230.67 84.24 227.8 83.63 233.61 78.05 233.3 76.25 236.18 74.56 237.97 74.39 245.4 69.56 249.65 69.5 253.77 61.95 254.86 60.97 247.19 64.62 241.75 63.6 238.44 69.03 236.3 70.34 235.09 66.76 229.76 66.3 226.68 70.01 222.48 64.34 216.71 63.72 210.39 61.88 208.08 58.85 207.97 56.19 209.18 52.83 205.68 49.26 204.71 50.23 200.49 47.14 194.9 42.84 198.35 38.25 198.87 40.17 194.77 38.34 192.69 34.88 192.85 30.4 182.62 26.6 181.68 24.5 183.97 20.38 182.15 16.97 185.28 12.46 179.39 6.43 177.1 2.53 172.74 -0.43 168.51 -4.5 164.85 -7.03 160.34 -10.01 158.39 -13.41 156.72 -15.49 159.24 -18.19 157.71 -16.16 154.75 -18.01 152.44 -21.06 152.1 -23.36 149.85 -24.03 145.35 -27.75 145.31 -26.37 140.36 -30.73 133.77 -33.43 122.65 -37.03 121.45 -45.56 114.87 -48.66 116.37 -50.44 112.46 -56.99 111.83 -59.98 113.99 -59.67 117.16 -63 119.13 -65.38 123.29 -69.17 124.86 -73.13 125.43 -73.23 123.27 -70.48 119.89 -71.5 117.48 -73.92 118.55 -77.29 117.64 -79.32 116.52 -82.07 115.39 -84.39 110.09 -82.22 107.2 -80.48 105.59 -82.36 102.22 -85.55 100.45 -87.58 96.91 -82.5 95.94 -81.93 94.33 -79.57 93.67 -79.55 93.54"/><polygon class="cls-5" points="74.2 17.7 74.81 19.99 73.46 23.01 74.81 26.77 76.85 29.79 78.21 31.67 79.65 33.28 77.58 39.58 68.98 39 70.81 41.6 71.33 43.91 67.94 47.38 69.51 55.01 66.64 55.31 61.95 59.06 63 62.53 58.83 61.67 53.77 62.82 45.7 62.82 39.45 68.03 27.62 65.71 24.85 65.89 18.24 65.03 11.24 63.22 1.57 59.83 -0.21 53.74 -6.69 54.91 -9.83 54.83 -15.62 56.16 -18.42 60.6 -21.38 59.54 -26.51 58.56 -26.01 57.3 -26.68 54.65 -31.1 58.8 -33.81 57.3 -36.19 56.16 -36.19 53.9 -40.26 53.9 -40.26 51.27 -40.94 49.38 -39.24 48.63 -39.24 45.24 -34.2 43.76 -31.04 47.12 -29.4 49.09 -26.25 43.35 -19.12 43.87 -17.64 46.55 -12.47 46.17 -11.03 44.59 -7.54 42.73 0.74 41.91 4.28 40.36 10.04 40.98 10.04 42.84 14.1 45.31 15.21 41.08 12.55 38.6 13.82 36.23 10.13 32.2 14.1 27.46 19.86 25.91 20.89 20.27 23.07 22.12 24.05 22.02 25.5 20.7 26.41 15.97 29.79 18.58 32.02 20.7 34.72 21.05 36.26 19.29 39.92 21.05 39.92 18.93 41.19 16.64 43.89 16.64 43.42 15.41 44.37 13.47 43.89 11.53 46.43 11 47.87 12.76 49.77 12.06 52.63 13.82 55.97 14.7 57.2 14.35 59.26 15.41 60.7 16.82 62.76 17.17 65.62 17.17 66.41 15.58 69.11 16.29 72.45 17.88 74.2 17.7"/><path class="cls-5" d="M63.5,57.82l1.58,0.91,2,0.72v3.37l2.38,1.93,1.3,1.69c-2.28-.28-2.27-0.31-2.27-0.31H65.66v2.53l-2.79-.28L61.6,71.19h-2L57,72.79H55.85l-0.76,1.41L57,76.45,56.11,78.7,57,80.95l-2.7.28-2,1.69L51,82.08l-1.52,2.53,3.3,0.56-2,1.13L51,88l-1.52,1.69L46,88l-2.28.29-2.54-.56-1.52-2.82-1.27,1.69-1.26,3.1-1.53-1.13-2.7.56-1.77-.56-1,1.41-3.3-.56-2.53-.84H23.75l0.48-1.16,1.4,0,0.6-1.3,2.2,0.22-0.2-2.66L24,80.5l-1.29-2.29,1.89-4.58-4-3.28,4.22-4.46,2.77-.17L39.45,68l6.25-5.2h8.07l5.06-1.16L63,62.54l-1-3.47Z"/><polygon class="cls-5" points="169.32 32.91 166.67 37.55 161.35 38.71 155.89 43.91 154.84 48.36 152.76 50.68 149.89 55.59 148.59 63.4 145.47 64.85 143.9 70.05 138.07 72.19 137.02 74.21 131.82 74.21 129.05 74.77 126.56 74.17 124.82 73.44 121.33 74.41 118.08 73.21 116.56 75.85 115.26 76.09 113.74 77.78 110.91 77.54 108.74 78.99 107.37 79.37 104.54 79.26 101.24 81.79 96.26 82.08 89.92 81.23 86.62 78.41 84.59 78.41 81.8 76.73 77.83 71.75 72 69.5 70.72 66.44 69.42 64.75 67.03 62.82 67.03 59.45 65.08 58.73 63.5 57.82 66.64 55.31 69.51 55.01 67.94 47.38 71.33 43.91 70.81 41.6 68.98 39 77.58 39.58 79.65 33.28 87.58 38.71 104.36 37.84 104.36 32.92 108.53 31.77 114.78 31.77 115.56 28.88 117.38 28.01 123.48 29.74 128.17 27.43 130.25 21.53 134.68 20.66 139.89 22.4 144.42 21.53 149.11 25.7 155.37 25.12 156.76 24.32 166.27 30 169.32 32.91"/><polygon class="cls-5" points="79.65 33.28 78.21 31.67 76.85 29.79 74.81 26.77 73.46 23.01 74.81 19.99 76.1 16.82 78.01 14.35 80.51 14.7 82.89 15.93 84.33 15.76 87.03 13.64 89.57 12.94 90.04 11.18 92.27 11 92.74 8.35 93.54 5.88 95.61 5.35 96.88 3.42 98.15 2.53 101.13 0.77 103.96 0.42 105.82 0.58 106.05 3.32 109.12 2.66 110.91 0.33 112.33 -0.63 113.83 -1.04 114.27 1 116.44 3.07 118.38 3.24 120.03 7.47 122.54 7.31 124.48 5.56 126.65 3.07 128.38 3.07 130.31 3.99 132.11 2.66 133.61 4.15 136.22 5.23 139.36 2.08 141.23 2 144.56 3.07 147.33 2.33 151.44 4.32 153.39 5.73 153.54 6.81 157.2 9.05 158.54 8.88 160.42 9.96 162.44 10.25 158.95 17.52 156.76 20.91 156.76 24.32 155.37 25.12 149.11 25.7 144.42 21.53 139.89 22.4 134.68 20.66 130.25 21.53 128.17 27.43 123.48 29.74 117.38 28.01 115.56 28.88 114.78 31.77 108.53 31.77 104.36 32.92 104.36 37.84 87.58 38.71 79.77 32.92 79.65 33.28"/><path class="cls-5" d="M103.84,0.27l-2.71.5-3,1.77-1.27.88L95.61,5.35l-2.07.53L92.74,8.35,92.27,11,90,11.17l-0.48,1.76L87,13.64l-2.7,2.11-1.43.18L80.51,14.7,78,14.35,76.1,16.82,74.81,20,74.2,17.7l-1.75.18-3.34-1.59-2.7-.71-0.79,1.59H62.76l-2.06-.35-1.43-1.41L57.2,14.35,56,14.7l-3.34-.88-2.86-1.76-1.91.7L46.43,11l-2.54.53,0.48,1.94-1,1.94,0.48,1.23h-2.7l-1.27,2.29v2.12l-3.66-1.77-1.54,1.77L32,20.7l-2.23-2.12L26.41,16l-4.68-3.44-3.16-2.27L13.2,4.68,9,3.45,3.9-4.47,5.3-8.9,0.18-13.13l-1.21-4L1.49-15.4l0.89,1.84L5.2-18.23l4.85-1.69,1.55,1.23,2.69-2.76,3.75-1.13,4.16-2.68,5.2-2.38L33.72-30l-1.89-1.95,2.59-.19,4.45,4.16,1.82-.36,0.18-.58,2.54,0.06V-31.9l2.66,0.64,1.62,0.13,0.11,2.18,1.27,2.18,1.16-.13,2.43,0.26,3,0.39,2.06,1.89,1-.1L59-23.07l1.85-.9H62l1.85-.38,1.39,1.15L65-21.92l-2.78,2.05V-19l1.62,0.38,2,1.93,1.85,1.28,0.81,2.44s1.85,1.28,1.85.9a2.38,2.38,0,0,1,.58-1l2.43-.9,1.15-1.54L72.89-17.8l0.23-1.8,2.78,0.77,2.31,1.67,2.63,1.54,3.25-.13,2.08-.64L85-12.67l3.24,3L90-10l0.58-.77L91.84-10,95.42-8.3l0.93-.52,2.66,1,0.92,2.57,0.12,1.28,3.79,2.06V0.27Z"/><path class="cls-5" d="M229.18,192.89l-0.07-1-1.51-.75-6.5-.37-4.38-1.87-1.6.1-1.35-1.21-2.36.46-2.67,2.06-1.52.84-3.63-2.24-1.6.1-1.6,2.15-3.12,2.59-6-1-0.68,2.53,2.87,3.18,0.08,1.88h2.78l2.53,1.59,4.3,5-1.6.38L197.19,203l-3.37-1.13-2.44.66,0.34,2.06,3.79,2.06,0.67,3.37-1.85.18-3.54-5-4-1.31a8.07,8.07,0,0,0-.59,2.15,25.93,25.93,0,0,0,2.93,3.27l2.36,2.15h-2l-3.18-1.22-1.35-3.84-0.84-1.22-6.83-6.08,1.18-1L178.16,196l-4,2.34-0.76,3.94-1,5a9.45,9.45,0,0,0,1.18,2.52l1.77,2.53,2.19,2.43,1.43,3.9,5.23,5.33,2,3.66-2.69,2.06,0.17-2.62-2.28-1.59-3.11-.1-0.42,2.44,1.85,2,1.18,2-1.69,2.9-3.88.47,2.61,2.25,4.39,0.93,0.67,2,1.69-.84,1.34,0.74s0.26,3.15.59,3.15,2.08,0.09,2.08.09l2.74,0.88,1.53,2.73,4.33,0.95,2,3.2-0.43,2.36,0.09,3.86,1.27,2.82-0.34,2.07-2.8-3.2-3.4-2.54L190.22,254l-1.27.75-3.06.75-3.14,1.42,1.36,1.79,1.53,4.43,5.69,2.83-0.43,1.32-3.73.94-0.85,1.6-1.87-.85,0.51-1.41-3.05-2.63-3.39-.47v2.44l4.67,9.23,1.53,5.18L184.2,285l2.63,3.3-1.1.66-3.65-2.26-2.46-5.56-2.38.1L175.38,288l-1.79.19-1.1-4.62a56.33,56.33,0,0,0-3-4.89l-2.12-2.17L165,281.77l-2.8-.66-3.31-7,2-4-0.17-2.73-5.77-5.75-4.07-5.65s3.9-4.43,4.49-4.52,3.31-.28,3.31-0.28l5.09-3.87,5.77,3.3,5.69,1.32,4.15,4,1.11-2,4.15-1.6-0.25-2.54-5.6-.66-2.29-2.35-1.53,1.32-2.88-3.58-0.17,1.13-3.56,1-3.14-1.7-3.14,1.13-5.86,1.22-2-3.3-2.55,3.77-2.55-5-0.51-2.26-1.87-2.83-2.12-.38-0.26-3.67,3.31,0.19,2.38,1.32,0.59-2.83-2.38-.38-3-2.17-1.53,2.45-4.84-6.5H137L135,222l-1.45-2.36,1.35-2.55,2.34-3-1.09-3.64,3-2.08,1.87-.69,2.34-8,4.4-3.29L146,190.55l6.09,0.17,1.09-1.38,4.21,0.35,4.83-4.33s2.53-1.38,3.63-1.38h8.42l1.25-3.64h5.78l3.12-1.91h7.37l8.11-2.77,5.93,1.73,3.63,2.08h3.9l2.34,1.9,5.93-.69,8.11-1-0.16-4.33L228,172.88l3.16-1.55,5.46,2.59L236.58,180l-4.15,3.81,0.78,4.33Z"/></g><g class="cls-16"><rect id="Fond-2" data-name="Fond" class="cls-4" x="-47.98" y="-16.85" width="615.81" height="482.12"/><path class="cls-17" d="M220.63,193.36l4.17-4.48-6.43-10.26L225,170l3.46-4-0.33-5.31-6.26-4.4-4,4.94-5.44.73L211,163.62l2.47,0.74-2.14,3.84-3.79.54-11.22-5.12-4-1.1-5.6-2.37-13.35,12.44L172,174.24l-0.82,3.49L169.42,181l-2.48-2.2-4.12,5.12-3.14-.9-7.59,1.64-3,.18-3.12,2-3.46-1.09-4,2.74-6.6-2.2-6.27-4.39-4.95-6.22-5.11-6.23-6.76-1.65-10.05-6.22L90.11,159,86,157.58l-3.3,1.65-3.79-1.47-1.81,2.75,0.66,8.23-2.31,5.14,0.49,2.38-2.47,5.3-3.14-2.94-6.6,1.29-2.14,2s-3.14,2.2-3.79,2.2-10.24-2.73-10.24-2.73l-1.65-2.2-2.47.37-3.79-3.47L39,171.31l-3.46-1.65L37.18,166l-3-3.31-2.64,3.12L26.79,164h-2L24,160l-2.63.19-1.66-2.38-1.32,2-2.47,1.28-6.27,6.59-1.31-2.56,1.15-3.29-12.53,3.48-0.82-2.75,9.56-3.1L8.15,159l2.14-1.83,3.3-4.4-13.52.36-10.55,1.1-2-4.39,2.3-1.83,4.95,0.73-3-9.52-6.59,1.65-1.66-10.07L-19.56,129l4.29-2.57,0.83-8.05-7.1-2.37-4.95-1.28-2.14-5.12-3.46,3.3-7.74-2.57-1.32-5.31,5.11-1.82-4-5.85s0.16-2.94.33-3.67,7.75,4.76,7.75,4.76l0.67,5.85,4.77-.18,6.76-.37,0.5-2.74-6.27-.55-5.27-8.06,4.95-5.13L-22.35,86l-2.81-3.11-2.63.91-0.83-7.13-4.61-4.94,6.42-9.51-6.42-.55L-39.34,63l-9.56,1.64,1.65-5.67-0.67-13.18,4.46-.73,1.81-6.23,7.91-6.59,7.09-.18,5.27-2.37,7.76,5.3,6.92-.55L-6,31.67l-3.46-3.29,7.74-.91,0.82,5.3,12.36-.55L20,31.67l6.26,1.83,3-3.29L25.63,28l-2.47.55-1.65-1.28,1.81-3.47,2.79-.37,3.46-1.28S37,21,37.67,20.87s9.72-1.1,9.72-1.1l-6.26-3.12-7.75.55-1.81-2.93L26.79,11.9,26,9l0.67-4.39L29.91,2.2l8.25,0.18L50,4.58,56,3.85l2.47-1.28,7.75,2.38,6.11,2.19,10.55-.36c0.66,0,3.63-3.48,3.63-3.48L87-.92l5.29-2.74L98.34-8l7.59-3.85,8.9-6.59,15.66-4.95,5.27-3.3,17.47,1.65,8.9,1.65,3.46-1.28L172.87-24l5.45-5.12,4.45,3.29-1.16,2.93,5.28,6,7.92,4,4.78-1.28,5.11-2,4.78,4.39V-7l7.58,7.32,4.28,0.37L225-3.47l6.61,2,6.1,6.59,2.81-.73L249.22,9l1.65-3.66,3.29,0.19,4,4,7.25,3.11,9.57,0.19,3-2.2L281,10.8l4.78-2.56,4.12-.73L291.75,7,295,7.5l3.79-1.84,3.31,2.75,2.8,1.46,2-.37,3,2,3-1.64,3.79,3.29,7.25-3.11,3-.91,5.6-4.76L341.72,0,347-3.11l4.61-6.77,5.28,2.2,3.46,1.47,2.3-2.38L367.93-8H372l5.08,2,1.81-5.23,5.8-1.21,0.72,3.62,11.24,7.24,1.08,4.83,4.72,0.4,2.32,5.23,8.74,8.49L413,28.87l3.55,12.54L425,42.93l10.67,1.5,10.31,12.24-3.81,2.4-2,3.24L437,66.88l-6.64,3,2.08,6,0.51,7L436.61,88l2.28,12.54,5.32,6.71-4.81,13.18,10.16,6L451,138.3l5.08,2.41-0.36,7.64-4.54-.15-3,4.31-3.65,1.88L441.21,150l-1.06-3.65L437,144.16l-7.1,2.28-8.74-1.14-9.62-6-8.37,3.29-6.46,5.45-5,1.18-4-7.8-7.55,4.6L371,149l-9.31,1.26-10.56-2.94-8.29,4.61-15.72,9.64-7.17.84-13.57,2.94-3.77-2.1-8.19-.42-6-5.87-7.17-1.25-12.45,5.86-5.91,3.77L253.11,167l-3.77-5.86-9.81-1.68-1.14,11.3,3,4.89,1.89,4.19-9.06.83,1.89,9.63-7,2.09,0.38,3.77-6.41-4.61Z"/><polygon class="cls-5" points="-3.5 -25.62 -2.85 -24.85 -3.69 -17.69 2.6 -7.93 19.36 0.45 24.98 1.38 24.98 7.43 22.04 10.69 16.84 10.69 14.75 8.36 10.98 8.36 5.53 5.56 1.33 6.96 -2.85 10.22 -9.14 8.82 -14.76 10.22 -21.46 22.5 -30.27 27.15 -35.72 31.34 -41.58 36.46 -43.25 40.18 -46.19 42.05 -44.94 36.92 -45.78 33.66 -41.58 29.48 -36.13 27.61 -32.37 24.83 -32.37 20.64 -37.39 23.89 -42.84 23.44 -46.19 23.89 -48.7 25.76 -50.97 21.57 -51.31 18.05 -44.83 10.38 -46.08 3.41 -39.41 -2.71 -39.31 -12.47 -46.46 -15.88 -46.54 -18.54 -40.75 -20.98 -40.44 -24.36 -38.56 -25.23 -35.59 -24.53 -30.59 -26.44 -28.55 -29.57 -25.73 -28.7 -22.76 -29.91 -19.95 -28 -17.29 -24.18 -13.93 -23.84 -11.43 -25.23 -8.45 -24.18 -5.8 -25.57 -3.5 -25.62"/><path class="cls-7" d="M300.64-78.1c-1.56-2.87-4.2-7.2-6.49-8.21-3.49-1.54-18.1-14.07-18.1-14.07l-7.66-5.41L252.93-112l-5.56-6.18L243.18-122,239-118.93l-7-3.87-2.94-5.41-9.05-2.32-7-6.18v-5.58l-0.7-3.86,13.65,5.55,7.65-3.64,1.64-6.67-2.73-3,6-14.55,3.82,3.64,1.64-5.45L255-167.88v-5.45l-7.1-4.85-6.56-2.42-6.56-1.21-3.28-7.88,8.19-1.82h11.48l-1.09-4.85,8.19-3,3.82-4.25L271.4-203l-4.37-9.7-8.19,3-8.74.61-6,2.42-4.37-1.21-0.78-12.64,9.83-7,2.81-5.46,12.64,0.78,11.08-3.12,4.21-10.13-4.21-7.79-4.91-5.28,0.7-15.59,6.33-8.58L276-290.51l-9.13-2.94-5.46-6.24-7.72-3.12-7,.78-9.83-5.46-7-2.34-6.16,3.11-9.13-6.24-11.24-10.13L198.36-320h-5.46l-8.42,4.67-9.83-7.79-13.35,2.34-4.75-7.8-2.11-10.74-5.62-5.46-8.42-4.68h-6.32L123-350.18l-4.92-14,6.31-6.06-9.12-7.79v-5.46l-10.54-7-4.21,3.11L97-391.33l-9,3.9-5.62,3.12L74-389l-4.22,9.36-4.22.77L58-382.06l-4.35-4.3v-4.25l-2.29-7.63v-5.94l-6.87-8.25,0.76-8.49,12.78,1.69,8.41,5.1,5.35-7.64L77.17-426,74.87-432l-6.12.85-1.53-5.1L61.11-437l-12.78-1.7,3.81-8.49L46-452.09H40.69L34.57-464,23.87-475l5.35-6.78-9-7.41,1.32-10.18-5.91-4.25-13-5.94L-5-506.17l-7.64,1.7-0.76-7.64-10.5-2.54-5.35,2.54-5.35-5.09-6.12.85-3.82,1.69v-12.5l-3.82-6.78-4.37-7.64-5.35-2.54,1.53-13.58-6.88-5.09L-68-567.64v-5.94l6.12-5.94-7.65-11,3.06-5.94-4.59-10.79,7.65-10.19,0.76-7.63,6.12-1.69-3.82-11.88,6.12,0.85,3.82-5.71,5.9,3.17,6.88-6.55h13l11.26,2.55,0.76-5.1-12.79-6.79-10.71,3.4-7.64-5.94-6.12-1.7-2.84-4.24,3.6-4.24-2.84-4.25-6.12,5.94-5.35,2.55-7.65-.85,20.64-17.59,15.84-15.27,15.29-16.12,16.6-13.35,5.35-16.12L-11.86-760.8l-14.31-1.7-6.88-7.64,9.94-6.78v-6.79l-14.53-3.4,0.76-10.79,2.29-6.79-13-.85-0.76-5.94,4.59-4.25-3.82-3.39V-831h9.18l-6.88-11.64-8.19-15.28-9.94-6.78a16.2,16.2,0,0,1-3.06-5.1c-0.76-2.54,5.35-11.65,5.35-11.65l7.64-9.33-11.47-13.58-14.53-2.55-8.2-11.65,3.06-5.94-2.29-9.33s10.5,0.85,12-1.7a44.34,44.34,0,0,0,3.06-7.64l9.94-1.69,5.35-6.79,16.6-2.31,13-.85,6.88-8.49L2.67-958.2-0.39-954l-15.84-1.7,4.37,7.41L16.43-944l-7.64,4.24-3.06,5.94L18-936.37l4.38-5.94,33.42,3.4,19.88,3.39,26.54,13.58,25,9.1,24.45,9.33,6.12-.84,9,9.33h6.88l9.94,7.64,5.35,11h5.35l-7.65,12.5-14.53,17-22.73,1.7L131-843.49l-20.44-4.24-24.25-3.39-22.94-5.1-9.73-2.55L30-868.1,8.78-874l-13-5.7,21.41,17.59L27.69-852l6.12,0.85,10.7,3.39,16.6,10.18s6.88,4,4.59,5.7a19.39,19.39,0,0,1-6.12,2.54l-2.29,6.79,5.35,5.94L68-808.93l0.76,6.78,0.76,7.41,8.41,4.24,3.82,3.39,4.59-1.69,14.31,10.18,6.88,1.7,7.64,4.24,12,0.85,6.12,2.54,2.29-5.94h6.88l0.76-5.94-4.59-10.18h-6.88l-11.26,1.69-6.12-6.78-3.82-4.86-7.65-2.54,0.77-5.09,6.12-1.7,1.53-5.94,6.88,0.85,9,5.09,7.64,4.25h5.35l-1.53,5.09H144l6.11-2.54L166-796.44l3.82-1.46,6.12,4,5.35-5.71,5.35,3.17,7.65,2.54-3.06-8.26-6.88-5.94-8.41-11L169-822.51l1.53-5.09,12.23-5.1,7.65-9.1,9-.84,9.17-2.55,7.65-12.73L230.54-852l3.82-2.55,9.18,4.24-0.77,5.94,3.06,4.25,2.28-5.94,4.59-.85,3.06,5.94,4.59,3.4,3.06-4.25-5.35-8.49s6.88-5.09,6.12-7.63-2.29-14.42-2.29-14.42l-16-6.56v-26.3L238.19-912l-9-4.85,5.14-4.25L256.53-916l39.55,3.17L294.55-901l-5.35,3.4-11.47,3.4-8.41,11.88,14.53,6.78,10.7,11.65L326.44-869l3.82-6.55,10.5-12.72,42.06-22.92h28.4l10.92-17,19.94-4.57,1.31,13.76-9.91,6.32s19,2.34,19.39,3.22a121,121,0,0,0,14-.59c1.87-.3,2.58-7.33,5-7.78A84.07,84.07,0,0,0,488.62-923l13.18,1.46,12,1.46,14.51-8.77,16.77-4.69,12.12,7L551.68-921l4.21,5.26,23.54-2.71-6.55-31.53L586-964.51s5.23,4.08,5.5,4.08l18.53,3.2,30.58,7.28,32.77,9.7,67.73,29.1L763-908.72,749.85-933,728-937.83l-24-26.68L693-986.33l-10.93-12.12,21.86-7.27-8.74-43.65h59L787-1034.82l-13.1,31.52,19.66,33.78L811-974.2,822-959.65l13.11,36.38,13.11,14.55-8.74,29.1-19.66,9.7-21.86,7.28,10.94,7.27,24,7.28,26.21-7.28,24-24.25,15.3-17-19.66-29.1h30.58l21.85,12.12,17.48,24.25,26.21-4.85-19.66-9.7-13.1-21.82-43.7-17-39.32,4.85-17.48-14.55,2.18-26.68-39.33-31.52,21.86-17-6.55-19.4h17.48l2.18,29.1,21.84,9.7L902.78-996l28.41,7.27-39.33-14.55-17.47-21.82,24,12.12L894-1032.4l13.11-2.42,28.4,7.27L955.22-1013l21.85-2.43-15.29-12.12-30.59-19.4,2.19-24.25,35-4.85h28.14v621.68l-3.66-13L988.26-480l-12.14-10.2L966.27-485l-14.49-7.67-14.4.84-13,1.68-3.79,11.88L904.7-474.1l-34.2,5-16.77,2.53-5.3,7.57-9.85.84-14.4,3.36s-10.7,5-13,6.73-16.68,1.78-16.68,1.78L774.73-448l-9.1.94-8.33,4.2,5.31,5.89v6.73l9.85,0.84-3,9.25s10.6,0.84,13.64,1.68,2.27,6.73,2.27,6.73l-6.82,2.52H767.9l-3,6.84,9.86,7.57-10.62,15.14s-11.46,2.52-11.46,5.05,9.19,4.31,11.46,5.15,6.06,4.21,6.06,4.21l9.1,1.68,4.54,4.2,13,6.73L800.59-340l-19.79,5-9.85,1.68-9.1-3.37L759.57-329l-9.19-6.83-19.7-.84-4.56-8.42-11.46-.84h-7.58l-7.58,5.05-12.12-5.05H679L670.62-340l-5.31,8.51-9.09.84-11.46-2.62-7.58-8.41-7.58-1.69-1.52,4.21,3.79,4.2v6.83l-6.06-2.52L625-337.5l-10.61-10.1L606-353.49l-4.54-7.57H588.58l-15.25.84L565-366.95l-6.06.84-5.31,4.21-6.81.84-6.16-6.73-11.37-2.52-2.27,5-8.33,11.77h-5.31L508-347.6l-9.85,3.36v7.57h-3.79L488.26-329l-6.07-1.68,5.3,14.31,5.31,7.57L486-302.91l-6.07.84-9.19-11.77-12.88-8.42-6.06,4.21,3,5.89-6.06,7.57-4.55-.84-0.76,17.77,9.1,6.73,0.75,6.73H448l-1.51,10.09-2.28,8.42,1.52,5.15,8.33,1.68,5.31,2.52,4.54,5.89,0.76,7.57,1.52,5.05,12.22-3.36,10.6,2.52,10.62,11.78,9.85,14.4,6.15,6.73-0.75,4.2-7.68-2.52-0.75,5.89,11.46,2.52,6.06,2.52,1.23,3.57-1.33,2.65-8.17,5.31-2.51,7-6.68.69-13.19,8.38-7.55-.7-4.39,20.66-2.52,8.37L473.43-123l-1.25,10.46,8.56,6.28,6.92,0.7,3.76,10.89,3.15,9.07,3.15-5.58,0.62,4.89-1.26,5.58L500.22-71l-0.63,4.19,1.89,8.8h4.41s-0.4,7.67,2.51,9.76,4.16,4.18,7.3,7,8.17,7,8.17,7l4.4,10.47,7.55,6-4.61,6-7.69,5.43-2.1,7-4.18,3.1L503.92-.2l-5.59-9.31-5.58-3.1-5.59-6.2-7.69-1.55-9.1-7.79-7,1.55L454.31-32l4.18-10.08-16.06-3.1-2.1-7h-7l-2.09,4.65-3.49-4.65-11.89,5.43-6.28,1.55-6.31-3.1L406.07-53l-3.52-.78L389.28-62.3l-3.49,1.55L380.9-67l-7,.78-11.21-3.88-5.6,1.55H348l-7-3.88-7-2.33-6.28-1.55-7-3.1h-4.2l-9.78-3.1-2.79,7Z"/><polygon class="cls-5" points="187.14 200.84 168.34 210.9 160.17 213.05 146.64 212 143.26 218.92 135.68 218.92 131.21 222.97 126.97 221.12 131.89 233.03 138.25 237.24 145.15 237.09 148.67 239.35 151.24 236.79 158.69 234.54 166.84 226.42 172.39 226.27 176.59 224.47 171.31 217.26 174.69 213.65 187.41 202.19 187.14 200.84"/></g><g class="cls-18"><polygon class="cls-5" points="156.88 62.11 156.79 74.08 172.6 76.28 174.81 73.63 179.53 75.51 187.96 78.69 187.31 83.88 196.5 85.47 205.66 82.03 221.59 82.82 222.95 72.81 220.31 72.56 218.4 75.35 210.88 77.98 209.76 75.25 212.16 73.09 212.63 70.03 207.37 69.3 200.76 71.06 192.47 69.57 180.55 68.44 177.28 70.52 173.3 67.75 172.8 62.9 170.38 62.67 168.12 65.83 165.47 65.82 164.37 62.58 161.5 59.68 160.76 63.43 156.88 62.11"/><path class="cls-5" d="M209.9-104.08l-0.1-1.4-2.2-1.09-9.43-.54-6.35-2.71-2.32.14-2-1.76-3.43.67-3.87,3L178-106.58l-5.26-3.26-2.32.14-2.33,3.12-4.52,3.76-8.69-1.5-1,3.68L158.1-96l0.12,2.72h4l3.67,2.3,6.23,7.2-2.32.54-6.36-6.11L158.58-91,155-90l0.49,3,5.51,3,1,4.9-2.69.27-5.14-7.2L148.34-88a11.72,11.72,0,0,0-.86,3.12c0.13,0.68,4.24,4.75,4.24,4.75L155.16-77h-2.94l-4.61-1.76-2-5.57-1.22-1.77-9.91-8.83,1.72-1.49-0.37-3.12L130-96.17l-1.1,5.71-1.47,7.2c-0.12.68,1.71,3.66,1.71,3.66l2.57,3.67,3.18,3.53L137-66.74,144.55-59l2.94,5.3-3.91,3,0.25-3.8-3.31-2.3L136-57l-0.61,3.54,2.69,2.85,1.71,2.86-2.45,4.21-5.62.69,3.79,3.26,6.36,1.35,1,2.86,2.45-1.22,2,1.08s0.37,4.58.86,4.58,3,0.13,3,.13l4,1.28,2.22,4,6.28,1.37,3,4.64-0.62,3.43,0.13,5.6,1.84,4.1-0.49,3-4.06-4.64-4.93-3.69-5.05-3.7-1.84,1.09-4.43,1.09-4.56,2.05,2,2.6,2.22,6.42L155,1.93l-0.62,1.91-5.42,1.37L147.7,7.53,145,6.3l0.74-2.05L141.3,0.42l-4.92-.68V3.29l6.78,13.4,2.22,7.52-0.74,5.33,3.81,4.78-1.6,1L141.55,32,138,23.93l-3.45.14-2.71,9.84-2.59.27-1.59-6.7c0-.54-4.32-7.1-4.32-7.1l-3.08-3.15-3.45,7.66-4.06-1-4.81-10.12,2.84-5.74-0.25-4-8.37-8.34-5.91-8.2s5.66-6.43,6.52-6.57,4.81-.4,4.81-0.4L115-25l8.37,4.79,8.25,1.92,6,5.74,1.61-2.88,6-2.32-0.36-3.69-8.13-1-3.33-3.41-2.22,1.91L127-29.1l-0.25,1.64L121.6-26,117-28.42l-4.55,1.65L104-25l-3-4.79-3.69,5.47-3.69-7.24L92.9-34.84l-2.71-4.1-3.07-.55-0.37-5.32,4.81,0.27L95-42.63l0.86-4.1-3.45-.55-4.3-3.15-2.22,3.56-7-9.44H76.16l-3-5.47L71.1-65.2l2-3.71,3.4-4.33-1.59-5.29,4.31-3,2.72-1L85.3-94.1l6.38-4.77-2.49-8.6L98-107.23l1.59-2,6.12,0.5,7-6.28s3.67-2,5.26-2h12.22l1.81-5.28h8.38l4.52-2.77h10.7l11.77-4,8.61,2.52,5.26,3h5.65l3.4,2.76,8.61-1,11.77-1.5-0.23-6.28-2.27-3.52,4.58-2.26,7.92,3.76-0.09,8.8-6,5.53,1.13,6.28Z"/><path class="cls-5" d="M-182.26,250.94l3.25,9.37,1.94,10.08v18.49L-178.36,299l1.29,5,2.6,12-2.6,7.92L-179,337.62l1.94,7.94,2.6,6.94-1.29,4.33-5.85,3.6-5.84,6.49,7.14,15.84,9.09,15.61-0.65,12.26,4.33,4.32,2.59,7.69,4.55,0.73,4.54-2.64,21.2,8.4L-123,457l38.07,8.64,18.61,20.9,15.78-10,28.25-17.39,68.12,42.4H208.39L206.9,356.6l-2.59-38.65,1.3-16.34-3.25-25L203,266.54l-3.24-5.76-3.24-8.65,1.28-8.4-1.95-6.48,5.85-14.4L201,216.05l-1.58-4.74-2.29-6.24-0.57-5.75,0.67-1.21,3.8-2.41v-4.51l0.66-1.19-3.3-3.54-1.13-4.81-7.65-2-3.26.67L173.88,180l-4.73-4-5.76-1.63-9.21-.68-4.52-5.85,1.08-2.56-1.36-2.92,0.35-3s-5.61-1.19-5.88-1.35-8.73-3.3-8.73-3.3l-4.47-3.46-3.58-.08-1.83-1.65-2.65,1.36-6.81-1h-2.91l-6.22,5-7.72.08-4.67,3.38-7.72,4-8.71,8.41-3.92,6.81-2.09,11,2.5,10.52,3.25,5.86L77.3,215.28l-5.35,9.53-13,11-13.39,1.92L33.44,224.28l-22.05-9.63-22.92-8.12H-22.8l-12.13-9.63L-41,184.41l-5.6-18.72-9.52-1-15.59-4.81-17.73-4.81-5.2-2.88-8.66,1.92L-121,151.26l-11.26-6.74-3.06-.43-3,12.46,4.32,8.64-9.52,5.05-6.5,6.23-6.48,2.89-2,7.2-6.49,4.32-6.27,7.21,3.68,14.88V223.8l-5.62,7.93-9.74,3.6-5.84,5,2,4.33Z"/></g><g class="cls-19"><rect id="Fond-3" data-name="Fond" class="cls-4" x="80.12" y="120.88" width="452.31" height="354.11"/><path class="cls-5" d="M277.41,275.28l3.07-3.29-4.72-7.53,4.84-6.32,2.54-2.95-0.24-3.9-4.6-3.23-2.91,3.63-4,.54-1.08,1.21,1.81,0.54-1.57,2.82-2.79.4-8.24-3.76-2.91-.81-4.12-1.74-9.8,9.14-1,1.21-0.6,2.56-1.33,2.42L238,264.59l-3,3.76-2.3-.66-5.57,1.2-2.18.14-2.29,1.48-2.54-.8-2.9,2-4.85-1.61-4.6-3.22-3.63-4.57-3.75-4.57-5-1.21L188,252l-6.42-1.88-3-1.08-2.42,1.21-2.78-1.08-1.33,2,0.48,6L170.76,261l0.36,1.75-1.81,3.9-2.3-2.16-4.85.95-1.57,1.48a14.27,14.27,0,0,1-2.78,1.61c-0.49,0-7.52-2-7.52-2l-1.21-1.62-1.81.27-2.78-2.55L144,259.08l-2.54-1.21,1.21-2.68-2.18-2.43L138.54,255,135,253.7h-1.45l-0.61-3-1.93.14-1.22-1.75-1,1.48-1.81.94-4.6,4.84-1-1.88,0.84-2.42-9.2,2.55-0.6-2,7-2.27,1.82-.28,1.57-1.34,2.42-3.23-9.93.27-7.75.81-1.45-3.22L107.9,242l3.63,0.54-2.18-7-4.84,1.21-1.22-7.4L101,228l3.15-1.89,0.61-5.91-5.21-1.74-3.63-.94-1.57-3.76-2.54,2.42-5.69-1.89-1-3.9,3.76-1.34-2.9-4.3s0.12-2.16.24-2.69,5.69,3.5,5.69,3.5l0.49,4.3,3.51-.13,5-.27,0.37-2-4.6-.41-3.87-5.92,3.63-3.77,2.54-.94-2.06-2.28-1.93.67-0.61-5.24-3.38-3.63,4.72-7-4.72-.4-4.49.94-7,1.21,1.21-4.16-0.49-9.68,3.27-.54,1.33-4.57,5.81-4.84,5.21-.13L99.66,155l5.7,3.89,5.09-.41,0.49-2-2.54-2.42,5.69-.67,0.6,3.89,9.08-.41,6.31-.4,4.6,1.34,2.18-2.42-2.66-1.61-1.81.4-1.21-.94,1.33-2.55,2.05-.27,2.54-.94s5.45-.81,5.94-0.94,7.14-.81,7.14-0.81l-4.6-2.29-5.7.4-1.33-2.15L135,142l-0.61-2.15,0.49-3.23,2.42-1.75,6.06,0.14,8.72,1.61,4.36-.54,1.81-.94,5.69,1.75,4.48,1.61,7.75-.26c0.48,0,2.66-2.56,2.66-2.56l0.36-3.09,3.88-2,4.48-3.22,5.58-2.82,6.54-4.84,11.5-3.64,3.87-2.42,12.84,1.21,6.54,1.21,2.54-.94,5.33,0.54,4-3.76,3.27,2.41-0.85,2.15,3.88,4.44,5.82,3,3.51-.94,3.76-1.48,3.51,3.23v3.49l5.57,5.38,3.15,0.27,2.66-3.09,4.85,1.48,4.48,4.84,2.06-.54,6.42,3.36,1.21-2.69,2.42,0.14,2.91,3,5.33,2.29,7,0.14,2.17-1.61,2.3,0.13,3.51-1.88,3-.54,1.33-.4,2.42,0.4,2.78-1.35,2.43,2,2.06,1.07,1.45-.27,2.18,1.48,2.18-1.21,2.78,2.41,5.33-2.29,2.18-.67,4.11-3.5,6.79-3.23,3.87-2.29,3.39-5,3.88,1.61,2.54,1.08,1.69-1.75,3.88,0.4h3l3.73,1.48,1.33-3.84,4.26-.89,0.53,2.66,8.25,5.32,0.79,3.55,3.47,0.29,1.71,3.84L419.1,146l-0.37,8.47,2.61,9.21,6.14,1.12,7.84,1.1,7.57,9-2.8,1.76L438.61,179l-2.29,3.34-4.88,2.21L433,189l0.37,5.12,2.7,3.81,1.67,9.21,3.91,4.93-3.53,9.68,7.46,4.4,1.06,8.7,3.73,1.77-0.26,5.61-3.34-.11-2.24,3.17-2.68,1.38-2.4-3.25-0.78-2.68-2.32-1.58-5.21,1.67-6.42-.84-7.07-4.37L411.47,238l-4.75,4-3.7.87-3-5.73-5.54,3.38-6.65,2.16-6.83.92-7.76-2.16-6.09,3.38-11.55,7.08-5.27.61-10,2.16-2.77-1.54-6-.31-4.43-4.31-5.26-.92-9.15,4.3-4.34,2.77-7.2,1.23-2.77-4.31-7.2-1.23-0.83,8.3,2.21,3.59,1.39,3.08-6.65.61,1.39,7.07-5.17,1.54,0.28,2.77L279.19,274Z"/><polygon class="cls-5" points="110.09 24.18 107.73 21.04 108.52 18.58 108.52 16.64 106.94 14.53 107.09 11.54 106.15 9.25 106.46 6.96 106.15 4.85 106.94 2.58 108.36 -0.77 107.73 -3.58 108.21 -6.4 106.46 -10.27 105.19 -12.56 104.73 -14.85 99.49 -19.42 98.07 -21.71 94.74 -25.22 94.42 -27.68 91.25 -28.56 89.35 -31.91 88.08 -33.67 85.38 -40.35 83.16 -44.4 79.83 -47.04 76.83 -48.28 74.3 -48.45 72.6 -48.5 76.33 -50 78.4 -53.88 85.5 -52.86 91.69 -55.02 99.42 -50.57 107.56 -46.57 110.65 -43.7 114.79 -45.99 120.46 -41.41 124.58 -36.83 123.56 -27.67 128.19 -23.22 131.69 -25.38 131.69 -20.36 132.72 -14.63 136.33 -12.34 138.91 -11.77 140.37 -6.14 138.9 -4.51 140.86 -2.88 142.94 -1.52 142.21 -0.3 139.27 0.24 138.16 1.06 137.43 -1.25 135.84 -1.11 134.86 -0.43 130.82 -2.61 129.02 -2.2 127.42 -0.3 126.32 -4.24 121.8 -1.79 121.67 -0.16 123.63 5.24 121.92 9.18 120.69 10.41 118.49 14.48 116.04 16.25 115.8 17.61 114.94 17.74 115.55 21.41 113.1 22.36 110.53 23.18 110.09 24.18"/><path class="cls-5" d="M-47.78,97.94l-3.91,5.44-2.15,5.12,1.23,9.7-1.33-9.73,2.12-5.09ZM-65.14,79.87l4.39,1L-65.06,80-68,84.31l-0.88,3.3-2.36,1.87,1.18,5,1.47,2.65L-71,99.54l0.76,0.77L-70,103l-0.47-2.67-0.78-.78,2.5-2.46-1.5-2.66-1.2-5L-69,87.51l0.91-3.32Zm0.22,27.61,0.62-6.49-0.53,6.47,3.3,1.73Zm20.44-5.12L-39,100V96.67A20.76,20.76,0,0,0-37.17,92c0.37-1.94-2.55-1.56-3.64-1.94s-3.64,0-4.73-1.95-1.1-5.43-3.28-5.43-2.73-.39-3.46-3.49S-57,72.62-57,72.62l-2.74,1.77-3.54.33V77l-0.06-2.41,3.6-.34,3.59-2.32,3.59-.67,0.6-3.66-1.8-1.34-3-3.66h3.6l3.89-.67L-55,56.36l-4.79-.67-0.6-3.33,0.6-5.65,3.3-3.32-0.31-5h-3l-2.7,2,1.18-2.16,0.63-1.16-1.5-4.66,3-.89,3.3,0.33,0.6-2-5.39-1.66-2.4-2,1.5-4-2.4-.33-0.6-5.32-1.75-4.2,1.62-.45,2.57-1.71,3.34,0.29,1.8-2,1.53-.29,1.8-3.13,3.85,1.42,4.12-1.14,2.05,0.85,2.82,0.57c0,0.17,8,7.69,9.24,9.4s4,8.88,4,8.88l10.9,4.44-0.92,6.28,1.84,4.79L-12.34,44-5,45.35l2.15,3.08,4.62-4.1L8.71,46v2.74L4.4,48.42,3.48,50.13,6.25,53.9l1.11,2.62L5.94,59,3.48,63.26,2.86,68l2.77,5.13,0.31,1.7,5.54,3.42,2.77,5.13-2.77,7.31H7.17l-2.77,2,0.92,3.07v3.76L8.1,101v2.74L5.35,105.5l-0.95.61-1.85-1.71-3.2,2.39-2.16-1L-8,108.16l-3.38-1.71-3.08,1.71L-16,110.89l-4-2.05-5.66,3.42-0.3,5.12-4,2.19,0.92-4.57-3.08-7.18-5.23-1.71L-38.64,100Z"/><polygon class="cls-5" points="112.79 114.43 113.26 115 112.64 120.25 117.27 127.43 129.58 133.59 133.7 134.27 133.7 138.71 131.54 141.1 127.73 141.1 126.19 139.39 123.42 139.39 119.42 137.34 116.33 138.36 113.26 140.76 108.64 139.73 104.52 140.76 99.59 149.78 93.13 153.2 89.12 156.27 84.81 160.03 83.59 162.76 81.43 164.13 82.35 160.37 81.73 157.98 84.81 154.91 88.82 153.53 91.58 151.49 91.58 148.41 87.89 150.8 83.89 150.47 81.43 150.8 79.58 152.17 77.92 149.09 77.67 146.51 82.43 140.88 81.51 135.76 86.41 131.26 86.48 124.09 81.23 121.59 81.17 119.63 85.42 117.84 85.66 115.36 87.04 114.72 89.22 115.24 92.89 113.83 94.39 111.53 96.45 112.17 98.64 111.28 100.71 112.69 102.66 115.49 105.13 115.74 106.96 114.72 109.15 115.49 111.1 114.47 112.79 114.43"/><path class="cls-5" d="M-13.45,143.95l-7.09-.2-1.35-1.28h-3.82L-26.63,138l-1.85.34-2.16-4.78,1.84-3.08-3.07-4.44,2.46-1.37-0.92-5.12,1.23-4.57L-30,119.57l4-2.19,0.3-5.12,5.66-3.42,4,2.05,1.54-2.74,3.08-1.71L-8,108.16l5.23-2.39,2.16,1,3.2-2.39L4.4,106.1l0.95-.61,4,5.74,4.62,2.05,0.92,3.07,2.77,5.27L17,125l0.31,6.49-3.08.14L12.78,136h-10c-1.29,0-4.28,1.64-4.28,1.64l-5.71,5.12-5-.41Z"/><path class="cls-5" d="M121.52,62.73l-1.23,5-1.18.32-8.31-1-3.08-5.81-2.16,3.41-3.2-2.73-5.23-.34L94,57.65l-6.77-.34L84.2,60,73.61,62.23s-5.53,4.44-6.15,7.52-6.16,2.39-6.16,2.39l-3.07-1.36-5.36-2.4-3.38.68-4.93-.68-4,1.37-4.93.68-7.09-3.76L25,68l-1.85-2.39H18.88l-1.54,1.71L12.1,66,11.17,63.6l2.78-1V59.36L7.48,56.28,6.25,53.9,3.48,50.13,4.4,48.42l4.31,0.34V46L1.82,44.32l-4.62,4.1L-5,45.35-12.34,44l-3.39-3.42-1.84-4.79,0.92-6.28-10.9-4.44s-2.77-7.18-4-8.88-9.24-9.23-9.24-9.23l3.39-.69h6.15L-30,3.86l6.89-2.52,1.85-6.15,3.69-1.71L-16-15.75l3.39-5.81,2.46-2.74L-9-29.55-2.5-35.7l6.28-1.37,3.14-5.48,4.64-2.29,11.35,1.72,9.68,1.72,9.8,4.58L46-34l6.19-4.58L62.92-42l5.67-.57,2.06-5.15,1.95-.79,1.69,0,2.54,0.18,3,1.24,3.33,2.64,2.22,4,2.7,6.69,1.27,1.76,1.9,3.35,3.18,0.88,0.32,2.46,3.33,3.51,1.43,2.29,5.23,4.58,0.46,2.29,1.27,2.29,1.75,3.87-0.48,2.82,0.63,2.82-1.42,3.35-0.79,2.27L106.46,7l-0.31,2.29,0.95,2.29-0.15,3,1.58,2.11v1.94L107.73,21l2.22,3,4.13,4.44,6.74,1.76,0.49-2.31,1.47-.14,3.55-1.22,1.35-.27,1.59-1.76,2.54-.14L136,25.62l2,3.4-0.25,1.22,0.17,0.66L138.64,32l-1.11,2.09,0.15,3.88L135.94,40l-2.86.71-3.63.18-0.95,1.75-2.22-.35,1-2.11-0.48-2.64-0.16-1.94-1.9.35-1.58.89,1.11,1.4V41.8l-1.74,2.11,1.42,0.7-1.27,1.76L123,47.43l1.74-.7-0.31,2.11-1.75,1.58-2.85,4.76,1.42,2.64-0.63,2.11Z"/><path class="cls-5" d="M17.38,131.67L17,125l0.62-3.41-2.77-5.27-0.92-3.07-4.62-2.05-4-5.74,2.74-1.78V101L5.33,99.61V95.85L4.4,92.78l2.77-2h4.32l2.77-7.31-2.77-5.13L5.94,74.87l-0.31-1.7L2.86,68l0.62-4.78L5.94,59l1.54-2.74,6.47,3.08v3.22l-2.78,1L12.1,66l5.24,1.36,1.54-1.71h4.31L25,68l3.5-1.36,7.09,3.76,4.93-.68,4-1.37,4.93,0.68,3.38-.68,5.36,2.4,3.07,1.36s5.55,0.69,6.16-2.39,6.15-7.52,6.15-7.52L84.2,60l3.08-2.74L94,57.65l3.08,3.9,5.23,0.34,3.2,2.73,2.16-3.41L110.8,67l8.31,1,1.23-.34L120,77.26l-6.47-.34-2.46,5.13-3.08.68,0.92,11.4-3.39,4.79-2.28.34-2.15,3.42,3.08,1.37,3.2,2.72,1.85,3.42,3.53,4.23-1.69,0-1.95,1-2.18-.77-1.84,1-2.47-.25-1.95-2.8-2.07-1.4-2.18.89-2.07-.64-1.49,2.3-3.67,1.4L87,114.72l-1.38.64-0.23,2.48-4.25,1.79,0.06,2L80,121l-3.73,1.84,1.84,2.87,0.19,5.12-9.59,1.22-7,.82L59,130.64h-4.6l-4.28-2.45-7-2.05-9.59,3.27H24.77l-3.68,2.25H17.38Z"/><path class="cls-5" d="M190.26,23l6.47-2.16c0.37-.14.25-1.5,0.25-1.5l4.77-1.5,5.38-3.94,4.62-.54L213,12l-2.58-1.63-0.86-3.67-1.92,2L203,7.42l-0.49-1.23-6,.55-6.86,1.63-5-1.76L181,3.75l-6.12-.37-0.37-1.77,2.57-.14L178-.7l-6.85-1.91V-3.83l9.67,1.5,5,0.14,4.16-3-7,.4-4.25-1.76-0.12-5-3.18,5.43-4.4-1.35-1.84-.68L165.67-6l-4-.54-6.83,3.12,1.47,2.58-2.32,3-0.36,2L151.5,6.87l-2.2-3.63-2.94-1.63-0.86-2L144,0.79l1,2.45L147.1,4l3.31,4.76-1,1.5-0.86,2L145,14.75l-0.62-1h-1l-2,2-2.2,2.72-1,.27-1-2-1.84,2.58,0.24,1.77,1.84,0.41L136.82,23l1.34,0.54,0.74,3V30.1l-1.23.13L137.92,29l-2-3.4L131.8,24.4l-2.54.14-1.59,1.76-1.35.27-3.55,1.22-1.47.14-0.49,2.31-6.74-1.76-4-4.21,0.49-1.09,2.57-.82,2.45-1-0.61-3.67,0.86-.13L116,16.25l2.45-1.77,2.2-4.07,1.23-1.22,1.71-3.94-2-5.4,0.13-1.63,4.52-2.44,1.1,3.94L129-2.2l1.8-.41,4,2.17,1-.68,1.6-.13,0.73,2.31,1.11-.82,2.94-.54,0.73-1.22-2.08-1.36-2-1.63,1.47-1.63-1.46-5.63-2.58-.57-3.61-2.29-1-5.73v-5l-3.5,2.16-4.64-4.45,1-9.16-4.12-4.58L114.79-46l-4.13,2.29-3.1-2.86-8.14-4L91.69-55,85.5-52.86l-7.1-1L76.33-50l-5.67,2.29-2.06,5.15L62.92-42,52.2-38.55,46-34,42.4-36.83l-9.8-4.58-9.68-1.72L11.57-44.85,6.92-42.56,3.31-46l-11.23-6.3v-4.45l2.58-4,4.12-8.59h5l-3-5.72-3.09-6.87,6.07-7.89,7.73-5.72,4.65-8h3.61l4.12-6.74-3.1-3.44,0.52-2.86-6.19-11.45-3.1-6.3h7.74l5.67-6.17,8.13-.57L37.76-144l4.12,1.14,11.75,1.72,9.8,1.15,7.73,2.16,6.19,0.57,7.11,4,5.67-1.72,5.67-.57,5.16,1.15,4.52,5.15,2.58-3.43,6.19-1.72,5.68,6.87,3.61-2.86,4.64-.57,4.52-.57,3.61,4.58,5.16-2.86-2.57-5.15,6.71-10.75,4.65-.57,7.1-1.72,6.71,2.86,3.1-.57,3.1-6.87,6.19,3.44,4.13-2.29,6.59-2.86,2.58,2.86,3.1-2.29,7.74,5.15v4l6.7,5.72-4.64,4.45,3.61,10.3,8.13,0.57H219l6.18,3.43,4.13,4,1.55,7.88,3.49,5.73,9.8-1.72,7.22,5.73,6.19-3.44h4l3.61-2.29,8.25,7.45,6.71,4.58,4.53-2.29,5.16,1.72,7.22,4,5.16-.57L307.91-87l4,4.58,6.71,2.16,1,5.72L315-68.19l-0.51,11.45,3.61,3.88,3.1,5.73-3.1,7.44L310-37.4,300.69-38l-2.06,4-7.22,5.15,0.51,10.17-12.78.57-3.61,3.44-4.12,3.43-4.64,3.43L262.13-10l-3,4.58-9.28-1.15L244.7,2.55,239.55-.89,237.48,1.4l-6.07,6.74,7.1,7.44L247.28,27l7.23-1.72L259.14,27l3.5-2.29,6.19,1.72-3.09,3.43-1.55,4.45-8.13.57-6.19-1.71-3.61,3.44-5.16,3.43-10.72,4-3.1,5.73L221.61,51l-9.8-1.72-1-11.46-0.51-5.59-3-2.86-9.8-1.14-4.65.57Z"/><path class="cls-7" d="M336.17,75.89c-1.15-2.11-3.09-5.29-4.77-6-2.56-1.13-13.29-10.34-13.29-10.34l-5.62-4L301.13,51,297,46.47,294,43.63l-3.06,2.27-5.11-2.84-2.16-4L277,37.39l-5.11-4.54v-4.1l-0.51-2.84,10,4.08L287,27.32l1.2-4.9-2-2.23L290.62,9.5l2.81,2.67,1.2-4,8,1.78v-4l-5.21-3.56L292.62,0.6l-4.82-.89L285.4-6.08l6-1.34h8.43L299-11l6-2.22,2.81-3.12,6.82,0.45L311.48-23l-6,2.23-6.42.45-4.42,1.78-3.21-.89-0.57-9.29,7.22-5.15,2.06-4,9.29,0.57,8.14-2.29,3.1-7.44-3.1-5.72-3.61-3.88,0.51-11.45,4.65-6.3-1-5.72-6.71-2.16-4-4.58-5.67-2.29-5.16.57-7.22-4-5.16-1.72L279.62-92l-6.71-4.58L264.66-104,261-101.75h-4l-6.19,3.43L243.63-104l-9.8,1.72-3.49-5.73-1.55-7.89-4.13-4-6.19-3.43h-4.65l-8.14-.57-3.61-10.31,4.64-4.45-6.7-5.72v-4l-7.74-5.15-3.1,2.29-2.58-2.86L180-151.31,175.89-149l-6.19-3.44-3.1,6.87-3.1.57L158-147.37l-3.19-3.16v-3.12l-1.68-5.61v-4.36l-5-6.06,0.56-6.23,9.39,1.24,6.18,3.74,3.93-5.61,3.93-3.11L170.35-184l-4.49.63-1.12-3.74-4.49-.62L150.86-189l2.8-6.23-4.48-3.57h-3.93l-4.49-8.73-7.86-8.1,3.93-5-6.59-5.44,1-7.48-4.34-3.12L117.31-241l-5.62,2.5-5.61,1.25-0.56-5.61-7.71-1.87-3.93,1.87L90-246.63l-4.49.63-2.81,1.24v-9.18l-2.81-5-3.21-5.61-3.93-1.87,1.12-10-5.05-3.74-3.37-3.56V-288l4.49-4.36-5.62-8.1,2.24-4.36-3.37-7.93,5.62-7.49,0.56-5.61,4.49-1.24L71-335.86l4.49,0.62,2.81-4.2,4.33,2.33,5.05-4.81h9.55l8.27,1.87,0.56-3.74-9.39-5-7.86,2.5-5.61-4.36-4.49-1.25L76.64-355l2.65-3.11-2.09-3.12-4.49,4.36L68.78-355l-5.62-.63,15.16-12.92L90-379.77l11.23-11.84,12.19-9.8,3.93-11.84-10.67-12.29L96.13-426.8l-5.05-5.61,7.3-5v-5l-10.67-2.5,0.56-7.93,1.68-5-9.55-.62-0.56-4.36,3.37-3.12-2.81-2.49v-8.72h6.74l-5.05-8.55-6-11.22-7.3-5a11.9,11.9,0,0,1-2.25-3.74c-0.56-1.87,3.93-8.56,3.93-8.56L76.08-521l-8.42-10L57-532.86l-6-8.56,2.25-4.36-1.68-6.85s7.71,0.63,8.83-1.25a32.57,32.57,0,0,0,2.25-5.61l7.3-1.24,3.93-5L86-567.42l9.55-.62,5.05-6.23,16.69,3.74-2.25,3.12-11.63-1.25,3.21,5.44,20.78,3.12L121.81-557l-2.25,4.36,9-1.87,3.22-4.36,24.55,2.5,14.6,2.49,19.5,10,18.38,6.68,18,6.85,4.49-.62,6.59,6.85h5.06l7.3,5.61,3.93,8.1H258l-5.62,9.18-10.67,12.47-16.69,1.25-13.47,1.25-15-3.12-17.81-2.49-16.85-3.74-7.15-1.87-17.4-6.85-15.57-4.36-9.55-4.19L128-500l7.71,7.48,4.49,0.63L148-489.4l12.19,7.48s5.06,2.94,3.37,4.19a14.24,14.24,0,0,1-4.49,1.87l-1.68,5,3.93,4.36,3.93,5.61,0.56,5,0.56,5.44,6.18,3.12,2.81,2.49,3.37-1.24,10.51,7.48,5.06,1.25,5.61,3.11,8.83,0.63,4.49,1.87,1.68-4.36H220l0.56-4.36L217.21-448h-5.05l-8.27,1.24-4.49-5-2.81-3.57L191-457.16l0.56-3.74,4.49-1.25,1.12-4.36,5.05,0.62,6.59,3.74L214.4-459h3.93l-1.12,3.74h3.93l4.48-1.87,11.64,5.44,2.81-1.08,4.49,2.94,3.93-4.2,3.93,2.33,5.62,1.87-2.25-6.06-5.05-4.36-6.18-8.1-5.05-2.49,1.12-3.74,9-3.74,5.62-6.69,6.58-.62,6.74-1.87,5.62-9.35,10.52,4.36,2.81-1.87,6.74,3.11-0.56,4.36,2.25,3.12,1.67-4.36,3.37-.63,2.24,4.36,3.37,2.5,2.25-3.12-3.93-6.23s5.05-3.74,4.49-5.61-1.68-10.59-1.68-10.59l-11.78-4.82v-19.32l-5.62-5-6.59-3.56,3.78-3.12,16.28,3.74,29.05,2.33-1.12,8.72L327.77-526l-8.43,2.5-6.18,8.73,10.67,5,7.86,8.55L355.13-505l2.81-4.81,7.71-9.35L396.53-536h20.86l8-12.47,14.64-3.35,1,10.1-7.28,4.64s14,1.72,14.24,2.37a88.83,88.83,0,0,0,10.26-.43c1.37-.22,1.89-5.38,3.68-5.71a61.75,61.75,0,0,0,12.31-3.87l9.68,1.07,8.82,1.07L503.41-549l12.31-3.44,8.9,5.16-4.07,4.08,3.1,3.87,17.29-2-4.81-23.16,9.63-10.69s3.84,3,4,3l13.61,2.35,22.46,5.35,24.07,7.12L659.7-536l16,1.78L666.12-552l-16-3.57-17.65-19.6-8-16-8-8.9,16.06-5.34L626-637.5h43.32l24.07,10.69-9.62,23.15,14.44,24.81,12.85-3.44,8,10.69,9.63,26.72,9.63,10.69-6.42,21.37-14.44,7.12-16.05,5.34,8,5.34,17.65,5.34L746.35-495,764-512.82l11.23-12.47-14.44-21.37h22.46l16.05,8.9,12.84,17.81,19.25-3.56L817-530.63l-9.63-16-32.1-12.47-28.88,3.56-12.84-10.69,1.6-19.6L706.23-609l16.05-12.47-4.81-14.25H730.3l1.6,21.37,16,7.12,30.49,8.91L799.3-593l-28.89-10.69-12.83-16,17.65,8.91L772-625l9.63-1.78,20.86,5.34L817-610.79l16-1.78-11.23-8.9L799.3-635.72l1.61-17.81,25.67-3.56h20.67v456.62L844.56-210l-3.33-9.27-8.91-7.49L825.08-223l-10.65-5.64-10.58.62-9.53,1.24-2.78,8.72L779.85-215l-25.12,3.71-12.32,1.86-3.9,5.56-7.24.62-10.57,2.47s-7.86,3.71-9.53,4.94-12.25,1.31-12.25,1.31l-14.54-1.31-6.68.69L671.59-192l3.9,4.33v4.95l7.24,0.62-2.23,6.8a97,97,0,0,1,10,1.23c2.23,0.62,1.67,4.94,1.67,4.94l-5,1.85h-7.8l-2.22,5,7.24,5.56-7.8,11.12s-8.42,1.85-8.42,3.71,6.75,3.17,8.42,3.78A21,21,0,0,1,681-135l6.68,1.24,3.34,3.09,9.53,4.94,2.79,9.27-14.54,3.71-7.24,1.24L674.92-114l-1.67,5.63-6.75-5L652-114l-3.35-6.18-8.42-.62h-5.57l-5.57,3.71-8.91-3.71H614l-6.12,4.33-3.9,6.25-6.68.62-8.42-1.92-5.57-6.18L577.8-119l-1.12,3.09,2.78,3.09v5L575-109.62l-0.56-5-7.79-7.42-6.19-4.33-3.34-5.56h-9.47l-11.2.62-6.12-4.94-4.45.62-3.9,3.09-5,.62-4.53-4.94-8.35-1.85L502.44-135l-6.12,8.65h-3.9l-4,4.33-7.24,2.47V-114h-2.78L474-108.39l-4.45-1.23,3.89,10.51,3.9,5.56-5,4.32-4.46.62-6.75-8.65-9.46-6.18-4.45,3.09L449.42-96,445-90.47l-3.34-.62L441.06-78l6.68,4.94,0.55,4.94h-3.89l-1.11,7.41-1.67,6.18,1.12,3.78,6.12,1.24,3.9,1.85,3.33,4.32,0.56,5.56,1.11,3.71,9-2.47,7.79,1.85,7.8,8.65,7.23,10.58,4.52,4.95-0.55,3.09-5.64-1.85L487.34-5l8.42,1.85,4.45,1.85,0.9,2.62-1,1.95-6,3.9-1.84,5.12-4.9.51L477.69,19l-5.55-.51-3.22,15.17-1.85,6.15-4,3.08-0.92,7.69,6.29,4.61,5.08,0.51,2.77,8,2.31,6.66,2.31-4.1,0.46,3.59-0.92,4.1,2.31,7.18-0.46,3.08,1.39,6.47h3.24s-0.29,5.63,1.84,7.17,3.06,3.07,5.36,5.12,6,5.12,6,5.12l3.23,7.69,5.54,4.42-3.39,4.38-5.65,4-1.54,5.13L495.26,136l-9.77-2.85-4.11-6.84-4.1-2.28-4.11-4.56-5.65-1.14-6.68-5.72-5.13,1.14-6.67-4,3.07-7.4L440.31,100l-1.54-5.13h-5.15l-1.53,3.42-2.56-3.42-8.73,4L416.18,100l-4.64-2.28,2.07-3.42L411,93.78l-9.74-6.29-2.57,1.14-3.6-4.56-5.13.57-8.23-2.85-4.11,1.14H371l-5.13-2.85-5.15-1.71-4.61-1.14L351,75h-3.08l-7.18-2.28-2.05,5.13Z"/><polygon class="cls-5" points="6.92 -42.55 3.79 -37.07 -2.5 -35.7 -8.96 -29.55 -10.19 -24.29 -12.65 -21.56 -16.04 -15.75 -17.58 -6.52 -21.27 -4.81 -23.12 1.34 -30.01 3.86 -31.25 6.26 -37.4 6.26 -40.67 6.92 -43.61 6.2 -45.67 5.35 -49.79 6.49 -53.64 5.07 -55.44 8.2 -56.97 8.48 -58.77 10.47 -62.1 10.19 -64.67 11.9 -66.29 12.35 -69.64 12.22 -73.54 15.22 -79.42 15.55 -86.92 14.55 -90.82 11.22 -93.22 11.22 -96.51 9.23 -101.21 3.35 -108.1 0.69 -109.61 -2.94 -111.15 -4.93 -113.96 -7.21 -113.96 -11.19 -116.27 -12.04 -118.14 -13.12 -114.43 -16.09 -111.04 -16.43 -112.89 -25.45 -108.88 -29.55 -109.5 -32.29 -111.66 -35.36 -101.5 -34.68 -99.05 -42.12 -89.68 -35.7 -69.85 -36.73 -69.85 -42.54 -64.93 -43.9 -57.54 -43.9 -56.61 -47.32 -54.46 -48.35 -47.25 -46.3 -41.71 -49.03 -39.25 -56 -34.02 -57.03 -27.86 -54.97 -22.5 -56 -16.96 -51.08 -9.57 -51.77 -7.92 -52.71 3.31 -45.99 6.92 -42.55"/><polygon class="cls-5" points="22.55 196.4 26.24 199.05 31.19 203.21 33.18 204.76 34.87 208.52 41.95 209.18 45.34 213.72 45.24 215.82 51.22 220.36 52.71 218.36 50.92 215.04 47.83 214.71 44.24 207.64 44.94 205.32 43.34 203.88 41.85 201.48 36.97 201.48 29.69 197.27 27.03 192.51 23.25 192.51 21.35 195.4 22.55 196.4"/><path class="cls-5" d="M77.67,146.51l-0.08-1.14-1.79-.89L68.12,144l-5.17-2.21-1.89.11-1.6-1.44-2.79.55-3.15,2.43-1.8,1-4.28-2.65-1.89.11-1.89,2.54L40,147.54l-7.07-1.22-0.8,3,3.39,3.75,0.1,2.22h3.29l3,1.87L46.93,163l-1.89.44-5.18-5-4-1.33-2.89.78,0.4,2.43,4.48,2.43,0.79,4-2.19.22-4.19-5.86-4.75-1.54a9.54,9.54,0,0,0-.7,2.54c0.1,0.55,3.46,3.87,3.46,3.87l2.79,2.54H30.69l-3.75-1.44-1.6-4.53-1-1.44L16.28,154l1.4-1.22-0.31-2.54L12.59,153l-0.9,4.65-1.2,5.86c-0.1.55,1.4,3,1.4,3l2.09,3,2.59,2.88,1.69,4.6,6.18,6.3,2.39,4.32L23.65,190l0.2-3.1L21.15,185l-3.68-.12L17,187.76l2.19,2.32,1.39,2.33-2,3.42-4.58.56L17.07,199l5.18,1.1L23,202.48l2-1,1.59,0.88s0.3,3.73.7,3.73,2.46,0.11,2.46.11l3.23,1,1.81,3.23L40,211.58l2.41,3.78-0.5,2.79,0.1,4.56,1.5,3.34-0.4,2.44-3.3-3.78-4-3-4.11-3-1.5.89-3.61.89-3.71,1.67,1.61,2.11,1.81,5.23,6.72,3.35-0.5,1.56L28,235.52l-1,1.89-2.21-1,0.6-1.67-3.61-3.11-4-.56V234l5.52,10.91L25.11,251l-0.6,4.34,3.1,3.9-1.3.78L22,257.33l-2.9-6.57-2.81.11-2.21,8-2.11.22-1.3-5.45c0-.44-3.51-5.79-3.51-5.79l-2.51-2.56-2.81,6.24-3.3-.78-3.92-8.24,2.31-4.68-0.2-3.22-6.82-6.79-4.81-6.68s4.61-5.24,5.31-5.35,3.92-.33,3.92-0.33l6-4.57,6.82,3.9,6.72,1.56L18.79,221l1.31-2.34L25,216.81l-0.3-3L18.09,213l-2.71-2.78-1.81,1.56-3.41-4.23L10,208.91l-4.21,1.23-3.71-2-3.71,1.34-6.92,1.44L-11,207l-3,4.45-3-5.89-0.6-2.67-2.21-3.34-2.5-.45-0.31-4.34,3.92,0.22,2.81,1.56,0.7-3.34-2.81-.45-3.51-2.56-1.81,2.9-5.72-7.69h-2.2L-33.66,181l-1.71-2.79,1.6-3,2.77-3.53-1.29-4.3,3.51-2.46,2.21-.82,2.77-9.41,5.2-3.89-2-7,7.2,0.2,1.29-1.63,5,0.41,5.71-5.12s3-1.64,4.28-1.64h10l1.48-4.3h6.83l3.68-2.25h8.71l9.59-3.27,7,2.05,4.28,2.45H59l2.77,2.25,7-.82,9.59-1.22-0.19-5.12-1.84-2.87L80,121l6.45,3.06-0.08,7.17-4.9,4.5,0.92,5.12Z"/></g><g class="cls-20"><rect id="Fond-4" data-name="Fond" class="cls-4" x="-63.84" y="153.03" width="424.45" height="332.3"/><path class="cls-5" d="M121.3,297.91l2.88-3.09-4.43-7.07,4.54-5.93,2.39-2.77-0.23-3.66-4.31-3-2.73,3.4-3.75.51-1,1.14,1.7,0.51-1.48,2.65-2.61.37-7.73-3.53-2.73-.76L97.93,275l-9.2,8.57-0.91,1.14-0.57,2.4L86,289.4l-1.71-1.52-2.84,3.53-2.16-.62-5.23,1.13L72,292l-2.15,1.39-2.39-.75-2.72,1.89-4.55-1.52-4.32-3-3.41-4.29-3.52-4.29-4.66-1.14L37.36,276l-6-1.77-2.85-1-2.27,1.14-2.61-1-1.25,1.89,0.45,5.67-1.59,3.54,0.34,1.64-1.7,3.66-2.16-2-4.55.89L11.67,290a13.39,13.39,0,0,1-2.61,1.51c-0.46,0-7.06-1.89-7.06-1.89l-1.14-1.52-1.7.25L-3.44,286l-0.45-3.29-2.39-1.13,1.14-2.52-2-2.28L-9,278.93l-3.29-1.27h-1.36l-0.57-2.77-1.81.13-1.14-1.64-0.91,1.39-1.7.88-4.32,4.54-0.9-1.77,0.79-2.27-8.64,2.4-0.56-1.9,6.59-2.13,1.71-.26,1.48-1.26,2.27-3-9.32.25L-38,271l-1.36-3,1.59-1.26,3.41,0.51-2-6.56-4.54,1.13-1.14-6.94-2.16-1.26,3-1.77,0.57-5.55-4.89-1.64-3.41-.88-1.48-3.53-2.39,2.28-5.34-1.77L-59.13,237l3.52-1.26-2.73-4s0.11-2,.23-2.53,5.34,3.28,5.34,3.28l0.46,4,3.29-.12,4.66-.25,0.35-1.89-4.32-.38L-52,228.34l3.41-3.53,2.39-.89-1.94-2.14-1.81.63-0.57-4.92-3.18-3.41,4.42-6.56-4.42-.38-4.21.88-6.59,1.13,1.14-3.91-0.46-9.09,3.07-.5,1.25-4.29,5.45-4.54,4.89-.12,3.64-1.64,5.35,3.65,4.77-.38,0.46-1.89-2.39-2.27,5.34-.63,0.56,3.65,8.52-.38,5.92-.38,4.31,1.26,2-2.27-2.5-1.51-1.7.38-1.14-.88,1.25-2.39,1.93-.26,2.39-.88s5.11-.76,5.57-0.88,6.7-.76,6.7-0.76l-4.31-2.15-5.34.38-1.25-2-3.29-1.64-0.57-2,0.46-3,2.27-1.64,5.68,0.13,8.18,1.51,4.09-.5,1.7-.88L14.85,168l4.21,1.51,7.27-.25c0.45,0,2.5-2.4,2.5-2.4l0.34-2.9,3.64-1.89,4.2-3,5.23-2.65,6.14-4.54,10.8-3.41,3.64-2.27,12,1.14L81,148.49l2.39-.88,5,0.51,3.76-3.53,3.07,2.27-0.8,2L98,153l5.46,2.77,3.3-.88,3.52-1.39,3.3,3v3.28l5.22,5,3,0.25,2.5-2.9,4.55,1.39,4.2,4.54,1.93-.5,6,3.15,1.14-2.52,2.27,0.13,2.73,2.77,5,2.14,6.6,0.13,2-1.51,2.16,0.13,3.3-1.77,2.84-.5,1.25-.38,2.27,0.38,2.61-1.27,2.28,1.9,1.93,1,1.36-.26,2,1.39,2-1.13,2.61,2.27,5-2.14,2.05-.63,3.86-3.28,6.37-3,3.64-2.14,3.18-4.67,3.64,1.51,2.38,1,1.59-1.64,3.64,0.38h2.83l3.5,1.38,1.25-3.6,4-.83,0.5,2.5,7.74,5,0.75,3.33,3.26,0.27,1.6,3.6,6,5.85-0.35,7.95,2.45,8.64,5.76,1,7.36,1,7.11,8.44L274,205.36l-1.4,2.24-2.14,3.14-4.58,2.07,1.43,4.13,0.35,4.8,2.53,3.58,1.57,8.65,3.67,4.63-3.32,9.08,7,4.13,1,8.16,3.5,1.66-0.25,5.27-3.13-.1-2.1,3-2.52,1.29L273.34,268l-0.73-2.52L270.43,264l-4.89,1.57-6-.79-6.63-4.1-5.77,2.27-4.45,3.76-3.47.82-2.77-5.38-5.2,3.17-6.24,2-6.41.87-7.28-2-5.71,3.18L194.73,276l-4.94.58-9.36,2-2.6-1.45-5.64-.29-4.15-4L163.1,272l-8.58,4-4.07,2.6-6.76,1.15-2.6-4-6.76-1.16-0.78,7.79,2.08,3.37,1.3,2.89-6.24.57,1.3,6.64-4.86,1.44,0.26,2.6L123,296.68Z"/><path class="cls-5" d="M39.53,61.2l6.08-2c0.35-.13.23-1.4,0.23-1.4l4.48-1.4,5.05-3.7,4.34-.51,1.15-1.28-2.42-1.53-0.8-3.44-1.81,1.91-4.37-1.27L51,45.4l-5.62.51-6.44,1.53-4.7-1.66-3.42-2.68-5.74-.35L24.72,41.1,27.13,41l0.92-2-6.43-1.79V36l9.07,1.4,4.68,0.13,3.91-2.8-6.55.38-4-1.66-0.11-4.72-3,5.1-4.13-1.27-1.72-.64-3.34,2-3.79-.51L6.26,36.38l1.38,2.42-2.18,2.8L5.11,43.49,3.15,46,1.09,42.63-1.66,41.1l-0.81-1.91-1.38,1.15,0.92,2.3,2,0.73,3.1,4.47-0.92,1.4L0.4,51.14l-3.33,2.3-0.58-.9H-4.43l-1.84,1.91L-8.33,57l-0.92.26-0.92-1.91-1.73,2.42,0.23,1.66,1.72,0.38-0.68,1.4,1.26,0.51,0.69,2.8v3.32L-9.82,68l0.23-1.14-1.84-3.19-3.91-1.15-2.38.13-1.49,1.66-1.27.26-3.33,1.15-1.38.13L-25.64,68-32,66.31l-3.79-3.95,0.46-1,2.41-.77,2.3-.89-0.57-3.44,0.81-.12,0.23-1.28,2.3-1.66,2.06-3.82,1.15-1.15,1.6-3.7-1.84-5.07,0.12-1.53,4.25-2.29,1,3.7,1.5-1.78,1.69-.38,3.79,2,0.92-.64,1.5-.13,0.69,2.17,1-.77,2.75-.51,0.69-1.15-2-1.27-1.84-1.53,1.38-1.53-1.37-5.28L-11.09,28l-3.39-2.15-1-5.38V15.78l-3.28,2-4.35-4.17,1-8.6L-26,.73l-5.32-4.3-3.88,2.15-2.91-2.69-7.63-3.76L-53-12l-5.81,2L-65.45-11l-1.94,3.64-5.32,2.15L-74.65-.34-80,.19-90,3.42l-5.81,4.3L-99.23,5l-9.19-4.3-9.09-1.61-10.65-1.61-4.36,2.15-3.39-3.23-10.54-5.91v-4.18l2.42-3.76,3.87-8.06h4.74l-2.8-5.37-2.9-6.45,5.7-7.4,7.26-5.37,4.36-7.53h3.39l3.87-6.32-2.91-3.23,0.49-2.69-5.81-10.74-2.91-5.91h7.26l5.32-5.79,7.63-.54,3.88-2.68,3.87,1.07,11,1.61,9.2,1.08,7.26,2,5.81,0.54,6.67,3.76L-54.43-87l5.32-.54,4.84,1.08L-40-81.65l2.42-3.22,5.8-1.61L-26.46-80l3.39-2.68,4.35-.54,4.25-.53,3.39,4.29,4.84-2.68L-8.66-87l6.29-10.09L2-97.65l6.66-1.61,6.29,2.69,2.91-.54,2.91-6.45,5.8,3.23,3.88-2.15,6.18-2.69L39-102.48l2.91-2.15,7.27,4.84V-96l6.29,5.37-4.35,4.18,3.39,9.67,7.63,0.54h4.36l5.8,3.22,3.88,3.77,1.45,7.4,3.27,5.38,9.2-1.61,6.78,5.38L102.71-56h3.76l3.39-2.15,7.75,7,6.29,4.3L128.15-49,133-47.38l6.78,3.76,4.84-.53L149.93-42l3.76,4.3,6.29,2,1,5.37L156.6-24.4l-0.48,10.75L159.51-10l2.91,5.37-2.91,7-7.63,2.15L143.15,4l-1.93,3.76-6.78,4.84,0.48,9.55-12,.54-3.39,3.23-3.87,3.22-4.36,3.22L107,30.16l-2.8,4.3-8.71-1.08L90.61,42l-4.84-3.22-1.93,2.15-5.7,6.32,6.66,7L93,65l6.78-1.61L104.17,65l3.28-2.15,5.81,1.61-2.9,3.22-1.46,4.17-7.63.53-5.81-1.61L92.07,74,87.23,77.2,77.17,81l-2.91,5.38-5.32,1.08-9.2-1.61L58.78,75,58.29,69.8l-2.8-2.69L46.3,66l-4.36.54Z"/><path class="cls-7" d="M176.45,110.81c-1.08-2-2.9-5-4.47-5.66-2.4-1.06-12.47-9.7-12.47-9.7l-5.28-3.73-10.66-4.26-3.83-4.26-2.88-2.66L134,82.66,129.17,80l-2-3.73-6.24-1.6-4.8-4.26V66.57l-0.48-2.66L125,67.73l5.27-2.51,1.13-4.6-1.88-2.09,4.14-10L136.33,51l1.13-3.76L145,48.93V45.17l-4.89-3.34-4.52-1.67-4.52-.84-2.26-5.43,5.65-1.26h7.91l-0.75-3.34,5.65-2.09,2.64-2.93,6.4,0.42-3-6.69-5.65,2.09-6,.42-4.15,1.67-3-.84-0.53-8.71,6.78-4.83L142.63,4l8.71,0.54L159,2.43l2.9-7L159-9.93l-3.39-3.64,0.48-10.74,4.36-5.91-1-5.37-6.29-2-3.76-4.3-5.32-2.15-4.84.54-6.78-3.76-4.84-1.61-4.25,2.14-6.29-4.3-7.75-7-3.39,2.15h-3.76l-5.81,3.22L89.61-58l-9.2,1.61L77.13-61.8l-1.45-7.4L71.8-73,66-76.19H61.64L54-76.73,50.61-86.4,55-90.58l-6.29-5.37v-3.76l-7.27-4.83-2.9,2.15-2.42-2.69-6.18,2.69L26-100.25l-5.8-3.23L17.32-97l-2.91.53L9.22-98.7l-3-3v-2.93l-1.58-5.26V-114l-4.74-5.68,0.53-5.85,8.81,1.17,5.8,3.51,3.69-5.27L22.42-129l-1.58-4.1-4.22.59L15.57-136l-4.22-.58-8.81-1.17,2.63-5.85L1-147H-2.72l-4.22-8.19-7.38-7.6,3.69-4.68-6.18-5.1,0.91-7L-20-182.49l-9-4.1-5.27,2.34-5.26,1.17L-40-188.34l-7.23-1.75-3.69,1.75-3.69-3.51-4.22.59-2.63,1.17v-8.61l-2.64-4.67-3-5.27-3.69-1.75,1.05-9.36-4.74-3.51-3.16-3.34v-4.09l4.22-4.09-5.27-7.6,2.11-4.1-3.16-7.44,5.27-7,0.53-5.26,4.22-1.17-2.64-8.19,4.22,0.59,2.63-3.94,4.07,2.18,4.74-4.52h9l7.76,1.76,0.53-3.51-8.82-4.68-7.38,2.34-5.27-4.1-4.22-1.17-2-2.92,2.48-2.92-2-2.93-4.22,4.09-3.69,1.75-5.27-.59,14.23-12.12,10.92-10.52,10.54-11.11,11.44-9.2,3.69-11.11-10-11.53-9.86-1.17-4.74-5.26,6.85-4.68v-4.68l-10-2.34,0.53-7.44L-54.6-390l-9-.58-0.53-4.09,3.16-2.93-2.64-2.34v-8.19h6.32l-4.74-8-5.65-10.53-6.85-4.68a11.17,11.17,0,0,1-2.11-3.51c-0.53-1.75,3.69-8,3.69-8l5.27-6.43-7.9-9.36-10-1.75-5.66-8,2.11-4.09L-90.67-479s7.23,0.59,8.29-1.17a30.56,30.56,0,0,0,2.11-5.27l6.85-1.17,3.69-4.68,11.44-1.59,9-.59,4.74-5.85,15.66,3.51L-31-492.88-42-494.05l3,5.1,19.5,2.93-5.27,2.92-2.11,4.1,8.43-1.75,3-4.1,23,2.34,13.7,2.34,18.3,9.36,17.25,6.27,16.85,6.43,4.22-.58,6.18,6.43h4.74L95.76-447l3.69,7.6h3.69l-5.27,8.61-10,11.7-15.67,1.17-12.64,1.17-14.09-2.92L28.75-422l-15.81-3.51-6.71-1.75L-10.1-433.7l-14.61-4.1-9-3.93,14.76,12.12,7.24,7L-7.47-422l7.38,2.34,11.44,7s4.74,2.76,3.16,3.93A13.36,13.36,0,0,1,10.3-407l-1.58,4.68,3.69,4.09,3.69,5.27,0.53,4.67,0.53,5.1,5.8,2.92,2.63,2.34L28.75-379l9.86,7,4.74,1.17,5.27,2.92,8.29,0.59,4.22,1.75,1.58-4.09h4.74l0.53-4.1-3.16-7H60.07l-7.76,1.17-4.22-4.67-2.64-3.35-5.27-1.75,0.53-3.51,4.22-1.18L46-398.19l4.74,0.58,6.18,3.51,5.27,2.93h3.69l-1.05,3.51H68.5l4.21-1.75,10.93,5.1,2.63-1,4.22,2.76,3.69-3.94,3.69,2.18,5.27,1.75L101-388.25l-4.74-4.09-5.8-7.6-4.74-2.34,1.05-3.51,8.43-3.51,5.27-6.27,6.17-.58,6.32-1.76,5.27-8.77,9.87,4.1,2.64-1.75,6.32,2.92-0.53,4.1,2.11,2.93,1.57-4.09,3.16-.59,2.11,4.1,3.16,2.34,2.11-2.93-3.69-5.85s4.74-3.51,4.22-5.26-1.58-9.94-1.58-9.94l-11.06-4.52v-18.13L133.4-464l-6.18-3.34,3.55-2.93L146-466.72l27.26,2.18-1.05,8.18L168.56-454l-7.91,2.34-5.8,8.19,10,4.67,7.38,8,22-3.51,2.64-4.52,7.23-8.77,29-15.8h19.57l7.53-11.7,13.74-3.15,0.9,9.48L268-464.38s13.1,1.61,13.37,2.22a83.36,83.36,0,0,0,9.63-.41c1.29-.2,1.78-5.05,3.45-5.36A58,58,0,0,0,306-471.56l9.09,1,8.28,1,10-6,11.56-3.23L353.3-474l-3.82,3.83,2.9,3.63,16.23-1.87-4.51-21.73,9-10s3.6,2.81,3.79,2.81l12.77,2.2,21.08,5,22.59,6.69L480-463.37l15.06,1.67-9-16.71L471-481.76l-16.56-18.39-7.54-15-7.53-8.36,15.07-5-6-30.08h40.65l22.58,10-9,21.73,13.55,23.29,12.05-3.23,7.53,10,9,25.08,9,10-6,20.06L534.26-435l-15.07,5,7.54,5,16.56,5,18.07-5,16.56-16.71,10.54-11.7L574.91-473.4H596L611.05-465l12,16.71,18.07-3.34-13.55-6.69-9-15-30.12-11.7-27.1,3.34-12-10,1.51-18.39-27.11-21.73,15.06-11.7L534.26-557h12l1.51,20.06,15.06,6.69,28.61,8.36,19.58,5-27.11-10-12-15,16.56,8.36-3-13.37,9-1.67,19.58,5,13.55,10,15.06-1.67-10.54-8.36L611.05-557l1.51-16.72L636.65-577H656v428.49l-2.53-9-3.13-8.7-8.37-7-6.79,3.55-10-5.29-9.92.58-8.94,1.16L603.77-165l-11,2.9-23.57,3.48-11.56,1.74L554-151.69l-6.79.58-9.92,2.32s-7.38,3.48-8.94,4.64-11.5,1.23-11.5,1.23l-13.64-1.23-6.27.65-5.74,2.9,3.66,4.06v4.64l6.79,0.58L499.56-125a91,91,0,0,1,9.4,1.16c2.09,0.58,1.57,4.64,1.57,4.64l-4.7,1.74h-7.32l-2.09,4.71,6.79,5.22L495.9-97.05s-7.9,1.74-7.9,3.48,6.33,3,7.9,3.55a19.7,19.7,0,0,1,4.18,2.9L506.35-86l3.13,2.9,8.94,4.64,2.61,8.7L507.4-66.25l-6.79,1.16-6.27-2.32-1.57,5.28-6.33-4.7-13.58-.58-3.14-5.8-7.9-.58h-5.22l-5.22,3.48L443-73.79H437.2l-5.74,4.06-3.66,5.87-6.26.58-7.9-1.81-5.22-5.8L403.19-72l-1,2.9,2.61,2.9v4.7l-4.18-1.74L400-68l-7.31-7L386.93-79l-3.13-5.22h-8.89l-10.51.58-5.74-4.64-4.18.58-3.66,2.9-4.7.58-4.25-4.64L334-90.6l-1.57,3.48L326.73-79h-3.66l-3.72,4.06-6.79,2.32v5.22h-2.61l-4.18,5.28-4.18-1.16,3.65,9.86,3.66,5.22-4.7,4.06-4.18.58-6.33-8.12-8.88-5.8-4.18,2.9,2.09,4.06-4.18,5.22-3.13-.58-0.53,12.25L281.15-29l0.52,4.64H278l-1,7-1.57,5.8,1,3.55,5.74,1.16,3.66,1.74L289-1.1l0.52,5.22,1,3.48L299,5.29,306.29,7l7.32,8.12,6.79,9.93,4.24,4.64-0.52,2.9-5.3-1.74-0.52,4.06,7.9,1.74,4.18,1.74,0.84,2.46-0.92,1.83-5.63,3.66-1.73,4.81-4.6.48-9.09,5.77L304,56.93l-3,14.24-1.74,5.77-3.73,2.89L294.68,87l5.9,4.33,4.77,0.48,2.59,7.51,2.17,6.25,2.17-3.85,0.43,3.37L311.84,109l2.17,6.73-0.44,2.89,1.3,6.07h3s-0.27,5.29,1.73,6.73,2.87,2.88,5,4.81,5.63,4.81,5.63,4.81l3,7.21,5.2,4.15-3.18,4.11-5.3,3.74L328.62,165l-2.88,2.14-9.17-2.67-3.85-6.41-3.85-2.14L305,151.67l-5.3-1.07-6.27-5.37-4.82,1.07-6.26-3.74,2.88-6.94-11.07-2.14-1.45-4.81h-4.83l-1.44,3.21L264,128.67l-8.19,3.74-4.33,1.07-4.35-2.14,1.94-3.21-2.43-.53-9.14-5.9-2.41,1.07-3.37-4.28L227,119l-7.72-2.67-3.86,1.07h-6.25l-4.82-2.67-4.83-1.6-4.33-1.07-4.82-2.14h-2.89l-6.74-2.14-1.93,4.81Z"/><polyline class="cls-21" points="135.67 21.69 134.45 21.35 133.92 12.64 140.69 7.8 142.63 4.04 151.34 4.58 158.98 2.43 161.88 -4.56 158.98 -9.93 155.59 -13.57 156.07 -24.31 160.43 -30.23 159.46 -35.6 153.17 -37.62 149.4 -41.92 144.08 -44.08 139.24 -43.54 132.47 -47.3 127.63 -48.91 123.38 -46.76 117.08 -51.06 109.34 -58.05 105.95 -55.9 102.19 -55.9 96.38 -52.67 89.61 -58.05 80.41 -56.43 77.13 -61.8 75.68 -69.2 71.8 -72.97 66 -76.19 61.64 -76.19 54 -76.73 50.61 -86.4 54.97 -90.58 48.68 -95.95 48.68 -99.71 41.41 -104.54 38.51 -102.4 36.09 -105.09 29.91 -102.4 26.04 -100.25 20.23 -103.47 17.32 -97.02 14.42 -96.49 9.22 -98.7 6.23 -101.67 6.23 -104.6 4.65 -109.86 4.65 -113.95 -0.09 -119.64 0.44 -125.49 9.25 -124.32 15.04 -120.81 18.73 -126.08 22.42 -129 20.84 -133.09 16.63 -132.5 15.57 -136.02 11.35 -136.6 2.55 -137.77 5.17 -143.62 0.96 -146.97 -2.72 -146.97 -6.94 -155.16 -14.32 -162.76 -10.63 -167.44 -16.81 -172.54 -15.9 -179.56 -19.97 -182.49 -28.93 -186.58 -34.2 -184.24 -39.46 -183.07 -39.99 -188.34 -47.23 -190.09 -50.91 -188.34 -54.6 -191.84 -58.82 -191.26 -61.45 -190.09 -61.45 -193.01 -61.45 -198.7 -64.09 -203.38 -67.1 -208.64 -70.79 -210.4 -69.73 -219.76 -74.48 -223.27 -77.64 -226.61 -77.64 -230.71 -73.42 -234.8 -78.69 -242.41 -76.59 -246.5 -79.75 -253.94 -74.48 -260.96 -73.95 -266.23 -69.73 -267.39 -71.04 -271.44"/></g></g></g></svg>